<?xml version="1.0" encoding="UTF-8"?>
<svg version="1.1" xmlns="http://www.w3.org/2000/svg" width="1080" height="1080">
<path d="M0 0 C356.4 0 712.8 0 1080 0 C1080 356.4 1080 712.8 1080 1080 C723.6 1080 367.2 1080 0 1080 C0 723.6 0 367.2 0 0 Z " fill="#1F281F" transform="translate(0,0)"/>
<path d="M0 0 C0.76441406 -0.02449219 1.52882813 -0.04898437 2.31640625 -0.07421875 C10.36676531 -0.11522228 16.5482071 3.21165583 22.45703125 8.5390625 C31.32051421 18.29512102 32.77685332 28.67810805 32.5 41.30078125 C31.95970112 51.68416797 27.86505688 60.3638274 20.125 67.375 C13.27520821 73.00705103 4.76205067 75.04579689 -4 74.796875 C-11.75246906 73.65928443 -17.83627337 70.20598131 -23.875 65.375 C-23.875 73.625 -23.875 81.875 -23.875 90.375 C-20.575 90.375 -17.275 90.375 -13.875 90.375 C-13.875 94.335 -13.875 98.295 -13.875 102.375 C-26.415 102.375 -38.955 102.375 -51.875 102.375 C-51.875 98.415 -51.875 94.455 -51.875 90.375 C-48.245 90.375 -44.615 90.375 -40.875 90.375 C-40.875 64.965 -40.875 39.555 -40.875 13.375 C-44.835 13.375 -48.795 13.375 -52.875 13.375 C-52.875 9.415 -52.875 5.455 -52.875 1.375 C-43.635 1.375 -34.395 1.375 -24.875 1.375 C-24.545 3.685 -24.215 5.995 -23.875 8.375 C-23.29492188 7.96507812 -22.71484375 7.55515625 -22.1171875 7.1328125 C-21.33601563 6.59398437 -20.55484375 6.05515625 -19.75 5.5 C-18.98429687 4.96632813 -18.21859375 4.43265625 -17.4296875 3.8828125 C-11.70837401 0.5060128 -6.48144234 0.01082044 0 0 Z " fill="#C6A33C" transform="translate(468.875,504.625)"/>
<path d="M0 0 C9.53669561 3.56332348 15.62712386 10.12549413 19.83203125 19.31640625 C21.52146154 24.89612328 22.19016092 29.93976062 22.14453125 35.75390625 C22.13715942 36.87249023 22.13715942 36.87249023 22.12963867 38.01367188 C22.01109121 43.58236276 21.30954975 48.27182039 18.83203125 53.31640625 C18.48011719 54.08339844 18.12820312 54.85039063 17.765625 55.640625 C13.64208433 63.87409729 7.4172409 69.03382609 -1.16796875 72.31640625 C-10.45165203 74.56608718 -18.71577301 73.79842167 -27.16796875 69.31640625 C-29.14796875 67.99640625 -31.12796875 66.67640625 -33.16796875 65.31640625 C-33.49796875 72.90640625 -33.82796875 80.49640625 -34.16796875 88.31640625 C-30.86796875 88.31640625 -27.56796875 88.31640625 -24.16796875 88.31640625 C-24.16796875 92.60640625 -24.16796875 96.89640625 -24.16796875 101.31640625 C-36.70796875 101.31640625 -49.24796875 101.31640625 -62.16796875 101.31640625 C-62.16796875 97.35640625 -62.16796875 93.39640625 -62.16796875 89.31640625 C-58.53796875 89.31640625 -54.90796875 89.31640625 -51.16796875 89.31640625 C-51.16796875 63.90640625 -51.16796875 38.49640625 -51.16796875 12.31640625 C-55.12796875 12.31640625 -59.08796875 12.31640625 -63.16796875 12.31640625 C-63.16796875 8.35640625 -63.16796875 4.39640625 -63.16796875 0.31640625 C-54.25796875 0.31640625 -45.34796875 0.31640625 -36.16796875 0.31640625 C-35.83796875 3.28640625 -35.50796875 6.25640625 -35.16796875 9.31640625 C-34.48734375 8.57390625 -33.80671875 7.83140625 -33.10546875 7.06640625 C-24.26079402 -1.82880948 -11.78542051 -2.54309321 0 0 Z " fill="#C5A33C" transform="translate(165.16796875,505.68359375)"/>
<path d="M0 0 C7.74288267 6.44177224 12.32107825 14.94377765 13.44140625 24.9375 C13.98845859 36.46261782 11.4630189 46.04881678 3.98828125 54.99609375 C-3.98914234 63.03620829 -13.95306718 67.08579392 -25.1875 67.25 C-36.46812195 67.12282275 -44.9284589 63.62938624 -53.19921875 55.9609375 C-61.49018304 47.28684178 -63.55596926 39.27268655 -63.40722656 27.55200195 C-63.05716479 17.76159775 -60.32766514 10.94590302 -53.8125 3.5 C-37.54820917 -10.95714741 -18.20512604 -11.39351764 0 0 Z " fill="#C5A33C" transform="translate(575,512)"/>
<path d="M0 0 C9.57 0 19.14 0 29 0 C29.33 21.78 29.66 43.56 30 66 C36.93 60.72 43.86 55.44 51 50 C52.32 49.01 53.64 48.02 55 47 C52.36 46.67 49.72 46.34 47 46 C47 41.71 47 37.42 47 33 C58.88 33 70.76 33 83 33 C83 37.29 83 41.58 83 46 C80.56947266 46.05027344 80.56947266 46.05027344 78.08984375 46.1015625 C71.49055035 46.70428598 67.64026067 49.31629035 62.5625 53.375 C61.78712891 53.96539063 61.01175781 54.55578125 60.21289062 55.1640625 C58.77795049 56.25970037 57.3499316 57.36451751 55.93188477 58.48193359 C55.29436279 58.98289551 54.65684082 59.48385742 54 60 C53.2999585 60.55896973 52.59991699 61.11793945 51.87866211 61.69384766 C50 63 50 63 48 63 C53.26042845 69.08694595 58.59858418 75.09051594 64.125 80.9375 C64.89070313 81.79923828 65.65640625 82.66097656 66.4453125 83.54882812 C71.1302887 88.43800148 74.25502658 90.53160786 81.1171875 91.06640625 C83.05851562 91.04449219 84.99984375 91.02257812 87 91 C87 95.29 87 99.58 87 104 C67.26276201 106.36846856 67.26276201 106.36846856 60.40576172 102.55859375 C55.88204791 98.96480214 52.21321868 94.68458743 48.67163086 90.14111328 C43.81717324 83.92326702 38.41179032 78.33450358 32.72265625 72.8828125 C31 71 31 71 31 69 C30.34 69 29.68 69 29 69 C29 76.26 29 83.52 29 91 C32.3 91 35.6 91 39 91 C39 95.29 39 99.58 39 104 C26.46 104 13.92 104 1 104 C1 99.71 1 95.42 1 91 C4.96 91 8.92 91 13 91 C13 65.26 13 39.52 13 13 C8.71 13 4.42 13 0 13 C0 8.71 0 4.42 0 0 Z " fill="#C5A33C" transform="translate(321,473)"/>
<path d="M0 0 C9.57 0 19.14 0 29 0 C29.33 21.78 29.66 43.56 30 66 C36.93 60.72 43.86 55.44 51 50 C52.32 49.01 53.64 48.02 55 47 C52.36 46.67 49.72 46.34 47 46 C47 41.71 47 37.42 47 33 C58.88 33 70.76 33 83 33 C83 36.96 83 40.92 83 45 C81.618125 44.95875 80.23625 44.9175 78.8125 44.875 C71.60690672 45.57724002 66.94755885 50.18490351 61.63574219 54.65576172 C59.06849829 56.76549977 56.38610636 58.68602705 53.6875 60.625 C52.33205078 61.60339844 52.33205078 61.60339844 50.94921875 62.6015625 C50.30597656 63.06304688 49.66273438 63.52453125 49 64 C53.87062264 69.76969424 58.87412831 75.38883171 64.0625 80.875 C64.83271484 81.74125 65.60292969 82.6075 66.39648438 83.5 C71.09803924 88.40530172 74.23368461 90.53440727 81.12109375 91.0703125 C84.03115234 91.03550781 84.03115234 91.03550781 87 91 C87 95.29 87 99.58 87 104 C65.15579079 106.25974578 65.15579079 106.25974578 58.53515625 101.1640625 C54.93666601 97.77545686 51.94694205 93.95379504 49 90 C47.78415233 88.59254988 46.55782235 87.19393898 45.3125 85.8125 C44.81234375 85.21824219 44.3121875 84.62398437 43.796875 84.01171875 C40.87770295 80.74351526 37.71662539 77.7105939 34.55395508 74.67895508 C33.33298998 73.48878678 32.16182601 72.24796501 31 71 C31 70.34 31 69.68 31 69 C30.34 69 29.68 69 29 69 C29 76.26 29 83.52 29 91 C32.3 91 35.6 91 39 91 C39 95.29 39 99.58 39 104 C26.46 104 13.92 104 1 104 C1 99.71 1 95.42 1 91 C4.96 91 8.92 91 13 91 C13 65.26 13 39.52 13 13 C8.71 13 4.42 13 0 13 C0 8.71 0 4.42 0 0 Z " fill="#C5A33C" transform="translate(676,473)"/>
<path d="M0 0 C8.0936331 5.92852956 11.75775277 12.4897502 14.7890625 22.04296875 C14.7890625 27.32296875 14.7890625 32.60296875 14.7890625 38.04296875 C-4.3509375 38.04296875 -23.4909375 38.04296875 -43.2109375 38.04296875 C-37.55918065 48.4278198 -37.55918065 48.4278198 -27.69921875 53.5 C-14.95977944 56.27987765 -2.98774417 52.90093663 7.7890625 46.04296875 C11.2540625 51.48796875 11.2540625 51.48796875 14.7890625 57.04296875 C9.6409409 63.71645971 1.51018142 65.46926244 -6.2109375 68.04296875 C-10.22681766 68.32995871 -14.24845856 68.32079059 -18.2734375 68.35546875 C-19.36849609 68.38447266 -20.46355469 68.41347656 -21.59179688 68.44335938 C-33.27031886 68.53378271 -42.03960545 64.78346797 -50.7734375 57.04296875 C-58.45208201 48.90360557 -60.02310398 39.36933853 -59.94116211 28.55908203 C-59.46906813 18.4705767 -55.82136705 10.09757832 -48.4609375 2.98046875 C-47.07886962 1.9530447 -45.66039471 0.97290725 -44.2109375 0.04296875 C-43.49164062 -0.45976562 -42.77234375 -0.9625 -42.03125 -1.48046875 C-29.68773989 -8.6184091 -11.94653148 -7.14225808 0 0 Z " fill="#C6A33C" transform="translate(830.2109375,509.95703125)"/>
<path d="M0 0 C0.66 0.66 1.32 1.32 2 2 C2.33 0.68 2.66 -0.64 3 -2 C6.96 -2 10.92 -2 15 -2 C15 5.59 15 13.18 15 21 C11.37 21 7.74 21 4 21 C3.773125 20.113125 3.54625 19.22625 3.3125 18.3125 C1.44651632 13.60311263 -1.05582743 10.99579571 -5.5625 8.6875 C-11.68603056 7.46279389 -19.06112025 6.40652623 -24.75 9.5625 C-27.28880342 11.89776943 -27.28880342 11.89776943 -27.75 15.5 C-27.34010584 19.1231408 -27.34010584 19.1231408 -24.6171875 21.0703125 C-20.2449578 23.76470553 -15.35266623 24.42348034 -10.375 25.375 C0.59878954 27.68066083 11.460278 30.07766317 18 40 C20.32525989 44.65051977 19.40975467 50.93866411 19 56 C15.93660979 62.71589392 10.59778897 66.55351402 3.9375 69.3125 C-4.88904148 72.27869829 -15.19671191 72.20119567 -24 69 C-27.375 67 -27.375 67 -30 65 C-30.99 64.34 -31.98 63.68 -33 63 C-33 64.98 -33 66.96 -33 69 C-36.96 69 -40.92 69 -45 69 C-45 60.75 -45 52.5 -45 44 C-41.37 44 -37.74 44 -34 44 C-33.46375 45.216875 -32.9275 46.43375 -32.375 47.6875 C-29.7643784 52.8811662 -26.72447624 55.91249898 -21.2109375 58.11328125 C-14.65880443 59.92269026 -7.635434 59.9663258 -1.25 57.625 C1.09525245 56.19554027 1.09525245 56.19554027 2 54 C2.4167552 51.04211431 2.4167552 51.04211431 2 48 C-0.93291177 45.21926761 -3.97816281 44.1862743 -7.8125 43.0625 C-8.95847656 42.7221875 -10.10445312 42.381875 -11.28515625 42.03125 C-15.09201159 40.97445735 -18.91705448 40.01977139 -22.75 39.0625 C-30.97390314 36.88982796 -38.19567265 34.40667133 -43 27 C-45.46006738 22.07986524 -44.55980289 15.36523956 -44 10 C-41.55213989 3.57557662 -36.47102871 0.70924719 -30.46484375 -2.08984375 C-20.28137259 -5.85014293 -9.63840579 -4.73283725 0 0 Z " fill="#C5A33C" transform="translate(959,508)"/>
<path d="M0 0 C2.5 1.6875 2.5 1.6875 4 3 C4.33 1.35 4.66 -0.3 5 -2 C8.96 -2 12.92 -2 17 -2 C17 6.58 17 15.16 17 24 C7 24 7 24 4.95703125 22.13671875 C4.57933594 21.32847656 4.20164062 20.52023437 3.8125 19.6875 C1.91008216 15.73632449 0.12994632 14.09932921 -4.03588867 12.53393555 C-7.36322066 11.6294141 -10.64366565 11.52671772 -14.0625 11.5625 C-14.74376953 11.54251953 -15.42503906 11.52253906 -16.12695312 11.50195312 C-21.22791479 11.50685318 -24.0662507 12.83905522 -28 16 C-33.65566786 22.12697351 -34.46487042 27.57145192 -34.30859375 35.70703125 C-33.69503571 42.25423921 -31.46019805 46.97753905 -26.625 51.4375 C-20.58752871 56.04537978 -14.41643255 56.8505559 -7 56 C-0.41319085 54.40866628 4.84831858 52.48694833 10 48 C13.62351253 49.20783751 14.15215236 50.29653142 16.1875 53.4375 C16.71730469 54.24058594 17.24710938 55.04367187 17.79296875 55.87109375 C19 58 19 58 19 60 C8.35879372 69.1961042 -5.32521177 71.93473236 -19 71 C-29.04180869 69.25231058 -38.09168638 64.12760943 -44.53125 56.21484375 C-50.98254175 46.48643305 -51.97249549 35.36462752 -51 24 C-48.58248566 14.36383304 -43.38992553 6.98672899 -35.44921875 1.11328125 C-24.55764663 -5.34935283 -11.37808527 -4.95020593 0 0 Z " fill="#C5A33C" transform="translate(649,508)"/>
<path d="M0 0 C2.5 2.1875 2.5 2.1875 4 4 C4.33 2.02 4.66 0.04 5 -2 C8.96 -2 12.92 -2 17 -2 C17 6.58 17 15.16 17 24 C13.37 24 9.74 24 6 24 C5.505 22.7625 5.01 21.525 4.5 20.25 C2.50069676 16.38833209 0.70191519 14.32496038 -3.3203125 12.625 C-6.91500923 11.78658677 -10.44981341 11.57038661 -14.125 11.5 C-14.80594727 11.48130859 -15.48689453 11.46261719 -16.18847656 11.44335938 C-21.24499263 11.50733476 -24.09496826 12.87251883 -28 16 C-33.89001904 22.38085396 -34.45888146 28.09046716 -34.30859375 36.55078125 C-33.72643156 43.05773333 -31.36015619 46.98631866 -26.625 51.375 C-20.60835846 56.05602344 -14.43961131 56.85321416 -7 56 C-0.41319085 54.40866628 4.84831858 52.48694833 10 48 C13.43970626 49.14656875 13.8782229 49.84518278 15.75 52.8125 C16.19859375 53.49957031 16.6471875 54.18664062 17.109375 54.89453125 C18 57 18 57 17.953125 59.01171875 C15.55856155 64.00693514 10.47924364 65.85168406 5.5625 67.6875 C4.47066406 68.10386719 3.37882812 68.52023437 2.25390625 68.94921875 C-9.18322925 72.64260344 -20.81552249 71.95070268 -31.59765625 66.74609375 C-41.40778619 61.31575033 -46.5121107 54.55742835 -50 44 C-50.495 42.515 -50.495 42.515 -51 41 C-51.98829603 28.025085 -50.82294043 17.66369548 -42.4375 7.125 C-30.93818247 -4.58766294 -14.72496062 -6.53380287 0 0 Z " fill="#C5A33C" transform="translate(294,508)"/>
<path d="M0 0 C0 8.58 0 17.16 0 26 C6.6 26 13.2 26 20 26 C20 29.96 20 33.92 20 38 C13.4 38 6.8 38 0 38 C0.07415721 43.16031907 0.15712456 48.31895431 0.26245117 53.47851562 C0.2956122 55.23200627 0.32367142 56.98560138 0.34643555 58.73925781 C0.3801447 61.26672698 0.43246692 63.79324638 0.48828125 66.3203125 C0.49467117 67.09867462 0.5010611 67.87703674 0.50764465 68.6789856 C0.63590658 73.47606645 1.3415933 76.85302668 4 81 C7.68087353 83.45391569 10.44355588 83.22802759 14.6875 83.125 C15.38939453 83.11597656 16.09128906 83.10695313 16.81445312 83.09765625 C18.54311525 83.07413704 20.27160145 83.03826713 22 83 C23.50121825 87.21995996 24.2140723 90.50448168 24 95 C18.6724256 97.63928456 14.48568965 98.52163433 8.5625 98.4375 C7.43654419 98.42505249 7.43654419 98.42505249 6.2878418 98.41235352 C-0.38467623 98.20808534 -4.79126423 96.99143989 -9.73046875 92.38671875 C-15.75419288 85.93375062 -16.29184966 79.51447862 -16.1953125 71.0078125 C-16.1924826 70.06187225 -16.18965271 69.11593201 -16.18673706 68.1413269 C-16.17558932 65.13575306 -16.15049465 62.13048298 -16.125 59.125 C-16.11496321 57.08073349 -16.10583859 55.03646228 -16.09765625 52.9921875 C-16.07566767 47.99467556 -16.04117509 42.9973892 -16 38 C-19.96 38 -23.92 38 -28 38 C-28 34.04 -28 30.08 -28 26 C-24.04 26 -20.08 26 -16 26 C-16 18.08 -16 10.16 -16 2 C-4.5 0 -4.5 0 0 0 Z " fill="#C7A43C" transform="translate(880,480)"/>
<path d="M0 0 C6.04478848 3.35928532 9.5272173 8.5816519 11.6875 15.0625 C12.40583464 23.48911787 11.30782177 30.45073368 7.125 37.8125 C1.92351502 42.61387075 -3.82071565 45.34785124 -10.9375 45.625 C-18.02455645 45.24515776 -22.89579829 42.8948674 -27.6875 37.6875 C-32.86616161 31.58304413 -32.80388464 24.35165542 -32.69140625 16.703125 C-32.0122605 10.17772457 -29.05764062 6.46550242 -24.3125 2.1875 C-16.80479014 -3.13046115 -8.4323796 -3.69394272 0 0 Z " fill="#21291F" transform="translate(560.3125,519.9375)"/>
<path d="M0 0 C9.57 0 19.14 0 29 0 C29 19.14 29 38.28 29 58 C32.3 58 35.6 58 39 58 C39 62.29 39 66.58 39 71 C26.13 71 13.26 71 0 71 C0 66.71 0 62.42 0 58 C3.96 58 7.92 58 12 58 C12 42.82 12 27.64 12 12 C8.04 12 4.08 12 0 12 C0 8.04 0 4.08 0 0 Z " fill="#C4A23C" transform="translate(197,506)"/>
<path d="M0 0 C1.2684375 -0.00773438 2.536875 -0.01546875 3.84375 -0.0234375 C9.7784903 0.62329702 13.51125634 2.84439808 17.3125 7.375 C18.18841797 8.3959375 18.18841797 8.3959375 19.08203125 9.4375 C23.2333617 15.10984133 22.27553591 24.60744634 21.5 31.375 C19.5680507 37.17917526 15.36729986 40.88324141 10.5 44.375 C3.98288212 46.54737263 -4.29657647 46.69104362 -10.67578125 44.0703125 C-13.46909918 42.38057749 -16.18187596 40.69312404 -18.5 38.375 C-18.79053382 34.01294726 -18.81401426 29.64513721 -18.85009766 25.2746582 C-18.86664057 23.80509588 -18.89390956 22.33561347 -18.93212891 20.86645508 C-18.98697348 18.7477852 -19.00878094 16.6310034 -19.0234375 14.51171875 C-19.0531665 12.60459106 -19.0531665 12.60459106 -19.08349609 10.65893555 C-18.5 7.375 -18.5 7.375 -16.14501953 5.03686523 C-10.53713945 1.51343532 -6.72180199 -0.0409866 0 0 Z " fill="#20281F" transform="translate(463.5,518.625)"/>
<path d="M0 0 C1.29550781 -0.02578125 2.59101563 -0.0515625 3.92578125 -0.078125 C8.73316127 0.34121033 11.95943672 1.65855711 15.515625 4.93359375 C15.98484375 5.51238281 16.4540625 6.09117187 16.9375 6.6875 C17.41703125 7.26371094 17.8965625 7.83992187 18.390625 8.43359375 C23.0910945 15.01708266 22.29750085 22.48214112 21.6875 30.25 C20.12679949 36.51149308 15.96380116 40.71206256 10.6875 44.25 C4.37866272 46.35294576 -3.94112716 46.45954206 -10.23046875 44.203125 C-13.32453713 42.48700224 -15.81025261 40.75224739 -18.3125 38.25 C-18.82865685 33.90858697 -18.85452738 29.55220262 -18.90283203 25.18408203 C-18.93718484 23.01985496 -19.02488097 20.86181563 -19.11328125 18.69921875 C-19.33932275 8.61559845 -19.33932275 8.61559845 -16.59277344 4.96289062 C-11.31429099 0.91516748 -6.5893346 0.07821169 0 0 Z " fill="#20281F" transform="translate(149.3125,518.75)"/>
<path d="M0 0 C2.05046144 1.21074866 3.73558767 2.47718494 5.48828125 4.0859375 C6.00132812 4.55515625 6.514375 5.024375 7.04296875 5.5078125 C10.79281334 9.44832715 10.65544541 11.2560866 11.48828125 17.0859375 C-2.37171875 17.0859375 -16.23171875 17.0859375 -30.51171875 17.0859375 C-29.37846007 9.15312675 -29.37846007 9.15312675 -26.32421875 5.8359375 C-25.75316406 5.19140625 -25.18210937 4.546875 -24.59375 3.8828125 C-17.81990077 -1.96328627 -8.38015432 -3.04969846 0 0 Z " fill="#20291F" transform="translate(817.51171875,517.9140625)"/>
<path d="M0 0 C3.04605491 0.39614774 4.88658644 1.30694266 7.22265625 3.2890625 C9.78898142 6.71082939 9.58700676 10.13546671 9.22265625 14.2890625 C7.51649684 18.12792117 6.06072539 19.71234221 2.22265625 21.2890625 C-2.47428493 22.08729043 -5.77074506 21.96012829 -9.77734375 19.2890625 C-12.45044282 15.2794139 -12.77734375 13.11749964 -12.77734375 8.2890625 C-9.87886619 1.76748798 -6.93466646 -0.24806937 0 0 Z " fill="#C4A23C" transform="translate(218.77734375,472.7109375)"/>
</svg>
