<?xml version="1.0" encoding="UTF-8"?>
<svg version="1.1" xmlns="http://www.w3.org/2000/svg" width="180" height="180">
<path d="M0 0 C59.4 0 118.8 0 180 0 C180 59.4 180 118.8 180 180 C120.6 180 61.2 180 0 180 C0 120.6 0 61.2 0 0 Z " fill="#F68429" transform="translate(0,0)"/>
<path d="M0 0 C0.495 0.99 0.495 0.99 1 2 C1.66 2 2.32 2 3 2 C3.495 4.97 3.495 4.97 4 8 C4.66 8 5.32 8 6 8 C8 11 8 11 8 14 C9.32 14.66 10.64 15.32 12 16 C12 18.31 12 20.62 12 23 C13.485 23.495 13.485 23.495 15 24 C15.495 26.97 15.495 26.97 16 30 C14.515 30.495 14.515 30.495 13 31 C13 31.99 13 32.98 13 34 C13.99 34 14.98 34 16 34 C15.67 35.65 15.34 37.3 15 39 C16.32 39 17.64 39 19 39 C18.505 35.535 18.505 35.535 18 32 C19.32 31.67 20.64 31.34 22 31 C22 30.34 22 29.68 22 29 C24.31 28.67 26.62 28.34 29 28 C29.33 26.35 29.66 24.7 30 23 C31.65 23 33.3 23 35 23 C35 24.32 35 25.64 35 27 C35.66 27 36.32 27 37 27 C37 25.35 37 23.7 37 22 C35.515 21.505 35.515 21.505 34 21 C34 19.68 34 18.36 34 17 C34.99 17 35.98 17 37 17 C37.33 16.34 37.66 15.68 38 15 C38.99 15.495 38.99 15.495 40 16 C40.33 15.34 40.66 14.68 41 14 C41.66 14 42.32 14 43 14 C43.33 12.35 43.66 10.7 44 9 C44.33 9 44.66 9 45 9 C45.06058594 9.89203125 45.12117187 10.7840625 45.18359375 11.703125 C45.26738281 12.87359375 45.35117188 14.0440625 45.4375 15.25 C45.51871094 16.41015625 45.59992188 17.5703125 45.68359375 18.765625 C45.96691587 22.48194426 45.96691587 22.48194426 47 26 C50.60648772 28.51505803 54.3873234 28.25746748 58.609375 28.1953125 C59.33618469 28.1924826 60.06299438 28.18965271 60.81182861 28.18673706 C63.12472251 28.17557523 65.43722388 28.15047851 67.75 28.125 C69.32160898 28.11496501 70.89322404 28.10584006 72.46484375 28.09765625 C76.31004622 28.07564904 80.15495664 28.04114715 84 28 C84.99 30.475 84.99 30.475 86 33 C86.33 33 86.66 33 87 33 C87.875 35.5625 87.875 35.5625 88 39 C86.65243725 41.02134413 85.15166298 42.66052699 83.4453125 44.38671875 C81.76247709 46.0500764 81.76247709 46.0500764 81 49 C78.50638429 47.79618552 76.31856917 46.54571278 74 45 C74.639375 46.0725 75.27875 47.145 75.9375 48.25 C77.40601273 50.80822182 78.52854542 53.05340886 79 56 C78.01 56 77.02 56 76 56 C76 56.99 76 57.98 76 59 C82.24478815 56.19214772 82.24478815 56.19214772 86.5625 51.1875 C86.7790625 50.1046875 86.7790625 50.1046875 87 49 C87.33 49 87.66 49 88 49 C88.33 71.77 88.66 94.54 89 118 C29.6 118 -29.8 118 -91 118 C-91 100.18 -91 82.36 -91 64 C-88.36 63.34 -85.72 62.68 -83 62 C-83 62.66 -83 63.32 -83 64 C-81.68 64 -80.36 64 -79 64 C-79 62.68 -79 61.36 -79 60 C-81.97 60.495 -81.97 60.495 -85 61 C-84.34 59.35 -83.68 57.7 -83 56 C-81.04174127 55.97305149 -79.08337774 55.95362782 -77.125 55.9375 C-76.03445312 55.92589844 -74.94390625 55.91429687 -73.8203125 55.90234375 C-71 56 -71 56 -69 57 C-68.67 54.36 -68.34 51.72 -68 49 C-66.68 49 -65.36 49 -64 49 C-63.773125 49.94875 -63.54625 50.8975 -63.3125 51.875 C-62.30916286 55.19323388 -62.30916286 55.19323388 -59.375 56.375 C-58.59125 56.58125 -57.8075 56.7875 -57 57 C-57 57.66 -57 58.32 -57 59 C-55.02 59 -53.04 59 -51 59 C-51 59.66 -51 60.32 -51 61 C-51.66 61 -52.32 61 -53 61 C-53 61.66 -53 62.32 -53 63 C-51.68 63 -50.36 63 -49 63 C-49 62.01 -49 61.02 -49 60 C-47.68 60 -46.36 60 -45 60 C-45 58.68 -45 57.36 -45 56 C-44.071875 56.5259375 -44.071875 56.5259375 -43.125 57.0625 C-37.8999467 58.63001599 -32.54479245 57.65099342 -27.3125 56.3125 C-23.91678543 55.85361965 -21.20630672 56.93123109 -18 58 C-18 57.34 -18 56.68 -18 56 C-14.7 56 -11.4 56 -8 56 C-7.67 56.99 -7.34 57.98 -7 59 C-5.68 58.67 -4.36 58.34 -3 58 C-3 57.34 -3 56.68 -3 56 C-0.36 56.33 2.28 56.66 5 57 C5 53.7 5 50.4 5 47 C7.64 47 10.28 47 13 47 C13 49.97 13 52.94 13 56 C15.87506421 56.02712325 18.74986908 56.04689851 21.625 56.0625 C22.43324219 56.07087891 23.24148437 56.07925781 24.07421875 56.08789062 C28.50341918 56.1058955 32.63883424 55.89622662 37 55 C37.33 53.35 37.66 51.7 38 50 C39.98 50 41.96 50 44 50 C44.33 52.31 44.66 54.62 45 57 C48.563579 57.08099043 51.56581379 56.8862416 55 56 C56.66623639 55.96213099 58.33397597 55.95372155 60 56 C60 56.66 60 57.32 60 58 C60.66 58 61.32 58 62 58 C62 57.01 62 56.02 62 55 C62.63808594 54.93941406 63.27617187 54.87882812 63.93359375 54.81640625 C64.75988281 54.73261719 65.58617187 54.64882812 66.4375 54.5625 C67.26121094 54.48128906 68.08492187 54.40007812 68.93359375 54.31640625 C70.98662025 54.21069185 70.98662025 54.21069185 72 53 C72.24733137 48.85723125 72.24733137 48.85723125 71 45 C69.22925083 44.97294271 67.45838289 44.95357805 65.6875 44.9375 C64.70136719 44.92589844 63.71523437 44.91429687 62.69921875 44.90234375 C59.90036151 44.87670138 59.90036151 44.87670138 57 46 C57 45.34 57 44.68 57 44 C49.08 44 41.16 44 33 44 C33 43.34 33 42.68 33 42 C32.30777344 42.15597656 31.61554688 42.31195313 30.90234375 42.47265625 C20.88170765 44.46622153 10.98666401 44.21715311 1 42 C1 41.34 1 40.68 1 40 C-0.32 40 -1.64 40 -3 40 C-3 40.66 -3 41.32 -3 42 C-3.66 42 -4.32 42 -5 42 C-5.495 39.03 -5.495 39.03 -6 36 C-6.33 37.98 -6.66 39.96 -7 42 C-12.60563042 42.82622671 -17.42289352 43.06795656 -23 42 C-23 42.66 -23 43.32 -23 44 C-24.32 44.33 -25.64 44.66 -27 45 C-26.8125 42.625 -26.8125 42.625 -26 40 C-21.73169271 37.1544618 -17.7904961 38.13614005 -13 39 C-12.34 39.33 -11.68 39.66 -11 40 C-11 38.68 -11 37.36 -11 36 C-12.64507218 35.80593522 -14.29109594 35.61992065 -15.9375 35.4375 C-16.85402344 35.33308594 -17.77054687 35.22867188 -18.71484375 35.12109375 C-19.46894531 35.08113281 -20.22304687 35.04117188 -21 35 C-21.33 35.33 -21.66 35.66 -22 36 C-24.65463121 36.45459858 -27.32189138 36.70243238 -30 37 C-29.01 37.495 -29.01 37.495 -28 38 C-28 38.66 -28 39.32 -28 40 C-30.97 40 -33.94 40 -37 40 C-37 41.32 -37 42.64 -37 44 C-40.37462715 43.45276317 -42.08235 42.9451 -45 41 C-45.4375 34.875 -45.4375 34.875 -44 32 C-41.03 32.33 -38.06 32.66 -35 33 C-37.1385485 30.8614515 -38.13275314 30.57344937 -41 30 C-41 29.01 -41 28.02 -41 27 C-41.66 27 -42.32 27 -43 27 C-43 26.01 -43 25.02 -43 24 C-38.4149983 24.76416695 -38.4149983 24.76416695 -36.20849609 26.01806641 C-31.45059542 28.1335071 -25.74611291 27.36962068 -20.625 27.375 C-19.40554687 27.39949219 -18.18609375 27.42398438 -16.9296875 27.44921875 C-9.81021065 27.6461117 -9.81021065 27.6461117 -3.265625 25.2734375 C-0.9101397 22.90982984 0.02886898 21.44649498 0.875 18.25 C1.09929687 17.45078125 1.32359375 16.6515625 1.5546875 15.828125 C1.70164062 15.22484375 1.84859375 14.6215625 2 14 C2.99 14 3.98 14 5 14 C5 13.34 5 12.68 5 12 C3.68 12 2.36 12 1 12 C1.020625 10.948125 1.04125 9.89625 1.0625 8.8125 C1.01103198 5.67295096 0.73482813 3.03116604 0 0 Z " fill="#F78328" transform="translate(91,62)"/>
<path d="M0 0 C0.97259766 -0.02900391 1.94519531 -0.05800781 2.94726562 -0.08789062 C9.27613851 -0.14359499 12.99590687 0.64145716 18.1875 4.3125 C18.1875 6.2925 18.1875 8.2725 18.1875 10.3125 C16.5375 10.3125 14.8875 10.3125 13.1875 10.3125 C12.5275 8.9925 11.8675 7.6725 11.1875 6.3125 C3.2675 5.9825 -4.6525 5.6525 -12.8125 5.3125 C-12.8125 7.6225 -12.8125 9.9325 -12.8125 12.3125 C-11.76795312 13.58157236 -11.76795312 13.58157236 -9.43920898 13.42260742 C-8.40610596 13.42107666 -7.37300293 13.4195459 -6.30859375 13.41796875 C-5.17486328 13.43279297 -4.04113281 13.44761719 -2.87304688 13.46289062 C-0.48514562 13.48734891 1.90303306 13.49300421 4.29101562 13.47851562 C11.0969337 13.60519092 15.50009283 14.25341369 20.81225586 18.65014648 C23.12516647 21.44592287 23.1875 23.74376492 23.1875 27.3125 C23.5175 27.3125 23.8475 27.3125 24.1875 27.3125 C24.17589844 26.56226562 24.16429687 25.81203125 24.15234375 25.0390625 C24.12374752 21.79543294 24.14552576 18.55596399 24.1875 15.3125 C24.19136719 14.36117187 24.19523437 13.40984375 24.19921875 12.4296875 C24.30801247 9.91617748 24.47985624 7.72761969 25.1875 5.3125 C29.8880956 1.02973512 34.2243891 0.17899354 40.390625 0.21484375 C41.3703125 0.21806641 42.35 0.22128906 43.359375 0.22460938 C44.37515625 0.23298828 45.3909375 0.24136719 46.4375 0.25 C47.984375 0.25676758 47.984375 0.25676758 49.5625 0.26367188 C52.10422573 0.27543912 54.64583319 0.29187989 57.1875 0.3125 C57.1875 0.9725 57.1875 1.6325 57.1875 2.3125 C57.93 2.374375 58.6725 2.43625 59.4375 2.5 C63.2273736 3.61973538 64.25360695 4.87446792 66.1875 8.3125 C66.1875 11.2825 66.1875 14.2525 66.1875 17.3125 C54.9675 17.3125 43.7475 17.3125 32.1875 17.3125 C32.83456816 22.78071343 32.83456816 22.78071343 35.1875 27.3125 C38.78311819 27.62001719 42.3928479 27.59090593 46 27.625 C47.5169043 27.66850586 47.5169043 27.66850586 49.06445312 27.71289062 C54.8246119 27.92350331 54.8246119 27.92350331 59.71484375 25.30859375 C60.20082031 24.64988281 60.68679687 23.99117187 61.1875 23.3125 C63.9375 23.0625 63.9375 23.0625 66.1875 23.3125 C65.6922783 26.97714055 65.1666794 29.02082354 62.1875 31.3125 C57.11526487 33.00324504 51.81021154 32.53927327 46.5 32.5625 C45.34048828 32.583125 44.18097656 32.60375 42.98632812 32.625 C36.31074646 32.6553608 31.25330782 32.15467875 25.1875 29.3125 C25.1875 30.3025 25.1875 31.2925 25.1875 32.3125 C25.8475 32.3125 26.5075 32.3125 27.1875 32.3125 C27.1875 33.3025 27.1875 34.2925 27.1875 35.3125 C28.363125 35.4671875 28.363125 35.4671875 29.5625 35.625 C32.1875 36.3125 32.1875 36.3125 34.1875 39.3125 C30.8875 38.6525 27.5875 37.9925 24.1875 37.3125 C23.8575 40.2825 23.5275 43.2525 23.1875 46.3125 C26.11014434 47.77382217 28.11213146 48.65349246 31.1875 49.3125 C31.1875 47.9925 31.1875 46.6725 31.1875 45.3125 C34.1575 45.3125 37.1275 45.3125 40.1875 45.3125 C40.1875 44.6525 40.1875 43.9925 40.1875 43.3125 C39.1975 42.9825 38.2075 42.6525 37.1875 42.3125 C37.1875 41.9825 37.1875 41.6525 37.1875 41.3125 C37.82558594 41.25191406 38.46367188 41.19132812 39.12109375 41.12890625 C39.94738281 41.04511719 40.77367187 40.96132812 41.625 40.875 C42.44871094 40.79378906 43.27242187 40.71257812 44.12109375 40.62890625 C46.17412025 40.52319185 46.17412025 40.52319185 47.1875 39.3125 C51.03347567 38.99200203 53.69721852 39.71694275 57.1875 41.3125 C57.1875 42.6325 57.1875 43.9525 57.1875 45.3125 C56.52363281 45.21710938 55.85976562 45.12171875 55.17578125 45.0234375 C48.39967303 43.9808757 48.39967303 43.9808757 42.1875 46.3125 C41.30056697 48.35355639 41.30056697 48.35355639 41.1875 50.3125 C43.1675 49.8175 43.1675 49.8175 45.1875 49.3125 C45.1875 48.6525 45.1875 47.9925 45.1875 47.3125 C50.4675 47.3125 55.7475 47.3125 61.1875 47.3125 C61.1875 45.3325 61.1875 43.3525 61.1875 41.3125 C61.8475 40.9825 62.5075 40.6525 63.1875 40.3125 C63.1875 42.6225 63.1875 44.9325 63.1875 47.3125 C63.8475 47.3125 64.5075 47.3125 65.1875 47.3125 C65.1875 46.6525 65.1875 45.9925 65.1875 45.3125 C73.0625 46.1875 73.0625 46.1875 74.1875 47.3125 C83.290952 48.39481266 92.08093584 48.4147843 101.1875 47.3125 C101.1875 47.9725 101.1875 48.6325 101.1875 49.3125 C101.8988208 49.3125 102.6101416 49.3125 103.34301758 49.3125 C111.62451172 49.3125 119.90600586 49.3125 128.1875 49.3125 C129.48880859 49.26029297 129.48880859 49.26029297 130.81640625 49.20703125 C131.78449219 49.17996094 132.75257813 49.15289062 133.75 49.125 C134.72066406 49.09019531 135.69132813 49.05539063 136.69140625 49.01953125 C137.51511719 49.11621094 138.33882812 49.21289062 139.1875 49.3125 C141.48913882 52.76495824 141.53240322 54.25988713 141.1875 58.3125 C139.1875 60.3125 139.1875 60.3125 137.0234375 60.5078125 C136.21132812 60.48460937 135.39921875 60.46140625 134.5625 60.4375 C133.74523437 60.41945312 132.92796875 60.40140625 132.0859375 60.3828125 C131.45945313 60.35960937 130.83296875 60.33640625 130.1875 60.3125 C130.1875 61.3025 130.1875 62.2925 130.1875 63.3125 C129.5275 63.3125 128.8675 63.3125 128.1875 63.3125 C128.1875 62.6525 128.1875 61.9925 128.1875 61.3125 C127.56875 61.456875 126.95 61.60125 126.3125 61.75 C121.97661215 62.53045981 117.59270529 63.13302867 113.1875 63.3125 C112.1875 62.3125 112.1875 62.3125 112.125 58.75 C112.145625 57.615625 112.16625 56.48125 112.1875 55.3125 C109.2175 55.8075 109.2175 55.8075 106.1875 56.3125 C106.14625 56.93125 106.105 57.55 106.0625 58.1875 C105.1875 60.3125 105.1875 60.3125 102.75 61.5625 C95.53112218 63.08226375 88.42960521 62.38540448 81.1875 61.3125 C81.1875 58.3425 81.1875 55.3725 81.1875 52.3125 C78.5475 52.3125 75.9075 52.3125 73.1875 52.3125 C73.1875 55.6125 73.1875 58.9125 73.1875 62.3125 C69.1875 63.3125 69.1875 63.3125 66.9375 62.375 C66.07125 61.8490625 66.07125 61.8490625 65.1875 61.3125 C65.1875 61.9725 65.1875 62.6325 65.1875 63.3125 C63.3125 63.9375 63.3125 63.9375 61.1875 64.3125 C60.5275 63.6525 59.8675 62.9925 59.1875 62.3125 C56.98499008 61.85243654 56.98499008 61.85243654 54.5625 61.6875 C53.74523437 61.61273438 52.92796875 61.53796875 52.0859375 61.4609375 C51.45945312 61.41195312 50.83296875 61.36296875 50.1875 61.3125 C50.1875 61.9725 50.1875 62.6325 50.1875 63.3125 C44.63609813 63.43866822 44.63609813 63.43866822 42.1875 62.75 C39.33925053 62.12694543 37.0370181 62.75377096 34.1875 63.3125 C27.54511589 64.5509106 27.54511589 64.5509106 24.1875 62.3125 C23.8575 63.3025 23.5275 64.2925 23.1875 65.3125 C21.8675 65.3125 20.5475 65.3125 19.1875 65.3125 C19.1875 66.3025 19.1875 67.2925 19.1875 68.3125 C17.8675 68.3125 16.5475 68.3125 15.1875 68.3125 C15.1875 67.6525 15.1875 66.9925 15.1875 66.3125 C15.8475 66.3125 16.5075 66.3125 17.1875 66.3125 C17.1875 65.6525 17.1875 64.9925 17.1875 64.3125 C15.2075 64.3125 13.2275 64.3125 11.1875 64.3125 C11.1875 63.6525 11.1875 62.9925 11.1875 62.3125 C10.23875 62.10625 9.29 61.9 8.3125 61.6875 C5.1875 60.3125 5.1875 60.3125 3.8125 57.1875 C3.60625 56.23875 3.4 55.29 3.1875 54.3125 C2.5275 54.3125 1.8675 54.3125 1.1875 54.3125 C0.8575 57.2825 0.5275 60.2525 0.1875 63.3125 C-5.48599291 62.69196171 -11.15086143 62.03307218 -16.8125 61.3125 C-16.8125 61.9725 -16.8125 62.6325 -16.8125 63.3125 C-17.8025 62.9825 -18.7925 62.6525 -19.8125 62.3125 C-19.8125 58.3525 -19.8125 54.3925 -19.8125 50.3125 C-16.26261229 49.42502807 -13.67069222 49.20704533 -10.0625 49.25 C-9.07765625 49.25902344 -8.0928125 49.26804688 -7.078125 49.27734375 C-5.95664062 49.29474609 -5.95664062 49.29474609 -4.8125 49.3125 C-4.4825 48.3225 -4.1525 47.3325 -3.8125 46.3125 C-3.1525 46.3125 -2.4925 46.3125 -1.8125 46.3125 C-1.8125 47.3025 -1.8125 48.2925 -1.8125 49.3125 C-0.87277344 49.26029297 -0.87277344 49.26029297 0.0859375 49.20703125 C1.31183594 49.16642578 1.31183594 49.16642578 2.5625 49.125 C3.37460937 49.09019531 4.18671875 49.05539063 5.0234375 49.01953125 C5.73757812 49.11621094 6.45171875 49.21289062 7.1875 49.3125 C9.1326 52.23015 9.64026317 53.93787285 10.1875 57.3125 C9.878125 55.394375 9.878125 55.394375 9.5625 53.4375 C9.2109375 51.2578125 9.2109375 51.2578125 9.1875 49.3125 C9.8475 48.6525 10.5075 47.9925 11.1875 47.3125 C12.1775 47.3125 13.1675 47.3125 14.1875 47.3125 C14.11789063 46.70921875 14.04828125 46.1059375 13.9765625 45.484375 C13.80674035 42.97747661 13.75433034 40.79143133 14.1875 38.3125 C17.125 35.9375 17.125 35.9375 20.1875 34.3125 C20.5175 33.3225 20.8475 32.3325 21.1875 31.3125 C17.26389155 30.01611092 15.33150869 31.0471442 11.56005859 32.57861328 C6.96997656 33.99843079 2.26499895 33.78353486 -2.5 33.75 C-4.02850586 33.7799707 -4.02850586 33.7799707 -5.58789062 33.81054688 C-12.9972499 33.80570099 -12.9972499 33.80570099 -16.95703125 31.41015625 C-20.00310609 27.96648849 -19.9107811 25.83343069 -19.8125 21.3125 C-18.1625 21.3125 -16.5125 21.3125 -14.8125 21.3125 C-14.1525 23.6225 -13.4925 25.9325 -12.8125 28.3125 C-4.2325 27.9825 4.3475 27.6525 13.1875 27.3125 C13.1875 25.3325 13.1875 23.3525 13.1875 21.3125 C11.46582171 19.59082171 9.14533966 20.14238908 6.796875 20.1015625 C5.69472656 20.07320312 4.59257812 20.04484375 3.45703125 20.015625 C1.12645578 19.96389192 -1.20429568 19.91951897 -3.53515625 19.8828125 C-4.64246094 19.851875 -5.74976563 19.8209375 -6.890625 19.7890625 C-7.90543945 19.76924316 -8.92025391 19.74942383 -9.96582031 19.72900391 C-13.52433699 19.20834958 -16.24916752 17.87583248 -18.8125 15.3125 C-19.05078125 12.9140625 -19.05078125 12.9140625 -19.125 9.9375 C-19.16238281 8.96039063 -19.19976563 7.98328125 -19.23828125 6.9765625 C-18.8125 4.3125 -18.8125 4.3125 -17.04296875 2.5234375 C-11.69279341 -0.38121111 -5.93964523 0.05834622 0 0 Z " fill="#ED8735" transform="translate(22.8125,56.6875)"/>
<path d="M0 0 C0.99 0 1.98 0 3 0 C3.20496094 0.55429687 3.40992188 1.10859375 3.62109375 1.6796875 C3.89050781 2.40414062 4.15992188 3.12859375 4.4375 3.875 C4.70433594 4.59429687 4.97117187 5.31359375 5.24609375 6.0546875 C5.97916854 8.03648845 5.97916854 8.03648845 7 10 C7.084915 11.8863912 7.107193 13.77578515 7.09765625 15.6640625 C7.09282227 17.34628906 7.09282227 17.34628906 7.08789062 19.0625 C7.07532227 20.8259375 7.07532227 20.8259375 7.0625 22.625 C7.05798828 23.80835937 7.05347656 24.99171875 7.04882812 26.2109375 C7.03701467 29.14067507 7.02054258 32.07031272 7 35 C2.23112363 35.02475064 -2.53771521 35.04288403 -7.30664062 35.05493164 C-8.92839204 35.05995505 -10.55013895 35.06677494 -12.171875 35.07543945 C-14.50521969 35.08759229 -16.8385044 35.09324828 -19.171875 35.09765625 C-19.89493835 35.10281754 -20.61800171 35.10797882 -21.36297607 35.11329651 C-28.04650274 35.11403844 -28.04650274 35.11403844 -31 34 C-33.29090311 30.83707571 -33.37612294 27.56611496 -33.625 23.75 C-33.69976562 22.67234375 -33.77453125 21.5946875 -33.8515625 20.484375 C-33.90054688 19.66453125 -33.94953125 18.8446875 -34 18 C-34.33 19.32 -34.66 20.64 -35 22 C-35.66 22 -36.32 22 -37 22 C-37.495 23.485 -37.495 23.485 -38 25 C-40 25 -42 25 -44 25 C-43.65213292 26.97536745 -43.65213292 26.97536745 -43 29 C-42.34 29.33 -41.68 29.66 -41 30 C-41 31.65 -41 33.3 -41 35 C-41.66 35 -42.32 35 -43 35 C-43.66 34.01 -44.32 33.02 -45 32 C-45.99 32 -46.98 32 -48 32 C-48.33 33.65 -48.66 35.3 -49 37 C-51.31 37 -53.62 37 -56 37 C-56 37.66 -56 38.32 -56 39 C-57.485 39.495 -57.485 39.495 -59 40 C-59 42.31 -59 44.62 -59 47 C-60.32 47 -61.64 47 -63 47 C-62.67 45.35 -62.34 43.7 -62 42 C-62.99 42 -63.98 42 -65 42 C-65 41.01 -65 40.02 -65 39 C-64.01 38.505 -64.01 38.505 -63 38 C-63.34227572 35.02934491 -63.34227572 35.02934491 -64 32 C-64.66 31.67 -65.32 31.34 -66 31 C-66.59765625 28.890625 -66.59765625 28.890625 -67.0625 26.25 C-67.21847656 25.38890625 -67.37445313 24.5278125 -67.53515625 23.640625 C-67.68855469 22.76921875 -67.84195313 21.8978125 -68 21 C-68.32934621 19.33254087 -68.66148338 17.66562162 -69 16 C-69.66 16 -70.32 16 -71 16 C-72.2890625 14.390625 -72.2890625 14.390625 -73.625 12.25 C-74.07101563 11.55390625 -74.51703125 10.8578125 -74.9765625 10.140625 C-76 8 -76 8 -76 4 C-74.02 4 -72.04 4 -70 4 C-69.49339844 5.04800781 -69.49339844 5.04800781 -68.9765625 6.1171875 C-68.53054687 7.02726562 -68.08453125 7.93734375 -67.625 8.875 C-67.18414062 9.77992187 -66.74328125 10.68484375 -66.2890625 11.6171875 C-65.09497301 14.09534472 -65.09497301 14.09534472 -63 16 C-63 17.32 -63 18.64 -63 20 C-62.34 20 -61.68 20 -61 20 C-57 26.75 -57 26.75 -57 29 C-56.34 29 -55.68 29 -55 29 C-54.64228516 28.01193359 -54.64228516 28.01193359 -54.27734375 27.00390625 C-52.63889034 23.15078493 -50.6268437 19.57594747 -48.5625 15.9375 C-48.16740234 15.23044922 -47.77230469 14.52339844 -47.36523438 13.79492188 C-46.26680754 11.84845835 -45.14165505 9.92134807 -44 8 C-43.51402344 7.17628906 -43.02804688 6.35257813 -42.52734375 5.50390625 C-41 4 -41 4 -36 4 C-36.33 7.3 -36.66 10.6 -37 14 C-36.01 13.67 -35.02 13.34 -34 13 C-32.86454438 10.70465742 -32.86454438 10.70465742 -32 8 C-31.0625 5.25 -31.0625 5.25 -30 3 C-26.82544776 1.94181592 -24.39146636 1.81346756 -21.0546875 1.71875 C-19.89582031 1.68136719 -18.73695313 1.64398438 -17.54296875 1.60546875 C-15.08985019 1.53493179 -12.63672513 1.46462072 -10.18359375 1.39453125 C-9.02730469 1.35714844 -7.87101562 1.31976563 -6.6796875 1.28125 C-5.08229736 1.23581055 -5.08229736 1.23581055 -3.45263672 1.18945312 C-1.05490485 1.27175439 -1.05490485 1.27175439 0 0 Z " fill="#EE8F43" transform="translate(169,54)"/>
<path d="M0 0 C0.33 0 0.66 0 1 0 C1 2.31 1 4.62 1 7 C1.66 7 2.32 7 3 7 C3 6.34 3 5.68 3 5 C10.875 5.875 10.875 5.875 12 7 C21.103452 8.08231266 29.89343584 8.1022843 39 7 C39 7.66 39 8.32 39 9 C39.7113208 9 40.4226416 9 41.15551758 9 C49.43701172 9 57.71850586 9 66 9 C67.30130859 8.94779297 67.30130859 8.94779297 68.62890625 8.89453125 C69.59699219 8.86746094 70.56507813 8.84039062 71.5625 8.8125 C72.53316406 8.77769531 73.50382812 8.74289063 74.50390625 8.70703125 C75.73947266 8.85205078 75.73947266 8.85205078 77 9 C79.30163882 12.45245824 79.34490322 13.94738713 79 18 C77 20 77 20 74.8359375 20.1953125 C74.02382812 20.17210938 73.21171875 20.14890625 72.375 20.125 C71.55773437 20.10695313 70.74046875 20.08890625 69.8984375 20.0703125 C69.27195312 20.04710938 68.64546875 20.02390625 68 20 C68 20.99 68 21.98 68 23 C67.34 23 66.68 23 66 23 C66 22.34 66 21.68 66 21 C65.38125 21.144375 64.7625 21.28875 64.125 21.4375 C59.78911215 22.21795981 55.40520529 22.82052867 51 23 C50 22 50 22 49.9375 18.4375 C49.958125 17.303125 49.97875 16.16875 50 15 C48.02 15.33 46.04 15.66 44 16 C43.95875 16.61875 43.9175 17.2375 43.875 17.875 C43 20 43 20 40.5625 21.25 C33.34362218 22.76976375 26.24210521 22.07290448 19 21 C19 18.03 19 15.06 19 12 C16.36 12 13.72 12 11 12 C11 15.3 11 18.6 11 22 C7 23 7 23 4.75 22.0625 C3.88375 21.5365625 3.88375 21.5365625 3 21 C3 21.66 3 22.32 3 23 C1.125 23.625 1.125 23.625 -1 24 C-1.66 23.34 -2.32 22.68 -3 22 C-6.55353345 21.85750242 -10.06347455 22.0062956 -13.6171875 22.125 C-16.86722968 22.00490606 -18.24986254 21.53496045 -21 20 C-21.66 20.33 -22.32 20.66 -23 21 C-25.14323306 21.12271508 -27.29079002 21.17553395 -29.4375 21.1875 C-30.59121094 21.20167969 -31.74492188 21.21585938 -32.93359375 21.23046875 C-36 21 -36 21 -39 19 C-39.41137202 15.96133201 -39.13193156 13.07840297 -39 10 C-34.71 10 -30.42 10 -26 10 C-26.33 11.65 -26.66 13.3 -27 15 C-26.01 15 -25.02 15 -24 15 C-24 13.35 -24 11.7 -24 10 C-20.535 9.505 -20.535 9.505 -17 9 C-17 8.34 -17 7.68 -17 7 C-11.72 7 -6.44 7 -1 7 C-1 5.02 -1 3.04 -1 1 C-0.67 0.67 -0.34 0.34 0 0 Z " fill="#E98F4B" transform="translate(85,97)"/>
<path d="M0 0 C1.07185547 -0.01546875 2.14371094 -0.0309375 3.24804688 -0.046875 C9.46545169 -0.01607671 13.38980947 0.25069988 18.0625 4.5 C20.36005922 7.94633882 20.29893976 9.21068391 20.2578125 13.26171875 C20.25136719 14.37998047 20.24492187 15.49824219 20.23828125 16.65039062 C20.22152344 17.81763672 20.20476562 18.98488281 20.1875 20.1875 C20.17847656 21.36634766 20.16945312 22.54519531 20.16015625 23.75976562 C20.13656423 26.67338026 20.1036454 29.58658892 20.0625 32.5 C15.29362363 32.52475064 10.52478479 32.54288403 5.75585938 32.55493164 C4.13410796 32.55995505 2.51236105 32.56677494 0.890625 32.57543945 C-1.44271969 32.58759229 -3.7760044 32.59324828 -6.109375 32.59765625 C-6.83243835 32.60281754 -7.55550171 32.60797882 -8.30047607 32.61329651 C-15.10556679 32.61405194 -15.10556679 32.61405194 -17.9375 31.5 C-19.27773146 28.81953709 -19.21740945 26.61669501 -19.3125 23.625 C-19.36148438 22.57570313 -19.41046875 21.52640625 -19.4609375 20.4453125 C-18.9375 17.5 -18.9375 17.5 -17.12890625 15.140625 C-12.31194012 12.66433886 -7.83304452 12.99794314 -2.5 13.125 C-0.96375977 13.12693359 -0.96375977 13.12693359 0.60351562 13.12890625 C5.79056449 13.18933789 10.21948682 13.4232362 15.0625 15.5 C15.0625 12.86 15.0625 10.22 15.0625 7.5 C12.00330612 6.48026871 9.93831975 6.38466398 6.73828125 6.40234375 C5.19624023 6.40717773 5.19624023 6.40717773 3.62304688 6.41210938 C2.01526367 6.42467773 2.01526367 6.42467773 0.375 6.4375 C-0.70845703 6.44201172 -1.79191406 6.44652344 -2.90820312 6.45117188 C-5.58469085 6.46296257 -8.26106777 6.47941937 -10.9375 6.5 C-11.2675 7.82 -11.5975 9.14 -11.9375 10.5 C-13.5875 10.5 -15.2375 10.5 -16.9375 10.5 C-17.25 7.75 -17.25 7.75 -16.9375 4.5 C-12.47533524 -0.96467755 -6.47075781 -0.09304864 0 0 Z " fill="#FCE5CD" transform="translate(155.9375,56.5)"/>
<path d="M0 0 C0.9796875 0.00322266 1.959375 0.00644531 2.96875 0.00976562 C3.98453125 0.01814453 5.0003125 0.02652344 6.046875 0.03515625 C7.59375 0.04192383 7.59375 0.04192383 9.171875 0.04882812 C11.71360073 0.06059537 14.25520819 0.07703614 16.796875 0.09765625 C16.796875 0.75765625 16.796875 1.41765625 16.796875 2.09765625 C17.910625 2.19046875 17.910625 2.19046875 19.046875 2.28515625 C22.8367486 3.40489163 23.86298195 4.65962417 25.796875 8.09765625 C25.796875 11.06765625 25.796875 14.03765625 25.796875 17.09765625 C14.576875 17.09765625 3.356875 17.09765625 -8.203125 17.09765625 C-7.55605684 22.56586968 -7.55605684 22.56586968 -5.203125 27.09765625 C-1.60750681 27.40517344 2.0022229 27.37606218 5.609375 27.41015625 C7.1262793 27.45366211 7.1262793 27.45366211 8.67382812 27.49804688 C14.4339869 27.70865956 14.4339869 27.70865956 19.32421875 25.09375 C19.81019531 24.43503906 20.29617187 23.77632812 20.796875 23.09765625 C23.546875 22.84765625 23.546875 22.84765625 25.796875 23.09765625 C25.3016533 26.7622968 24.7760544 28.80597979 21.796875 31.09765625 C16.67258638 32.80575246 11.28614573 32.3244594 5.921875 32.34765625 C4.73722656 32.36828125 3.55257812 32.38890625 2.33203125 32.41015625 C1.18863281 32.4153125 0.04523437 32.42046875 -1.1328125 32.42578125 C-2.69878174 32.4397998 -2.69878174 32.4397998 -4.29638672 32.45410156 C-7.64148118 32.04390184 -9.50033282 31.07760518 -12.203125 29.09765625 C-14.81328514 24.78176836 -14.60479026 20.00303406 -14.640625 15.09765625 C-14.67349609 14.30359375 -14.70636719 13.50953125 -14.74023438 12.69140625 C-14.77959148 8.39790424 -14.60117205 6.62201325 -11.92578125 3.09765625 C-7.94671115 0.17472384 -4.86199419 -0.02826741 0 0 Z " fill="#FEF0DB" transform="translate(63.203125,56.90234375)"/>
<path d="M0 0 C0.97259766 -0.02900391 1.94519531 -0.05800781 2.94726562 -0.08789062 C9.27613851 -0.14359499 12.99590687 0.64145716 18.1875 4.3125 C18.1875 6.2925 18.1875 8.2725 18.1875 10.3125 C16.5375 10.3125 14.8875 10.3125 13.1875 10.3125 C12.5275 8.9925 11.8675 7.6725 11.1875 6.3125 C3.2675 5.9825 -4.6525 5.6525 -12.8125 5.3125 C-12.8125 7.6225 -12.8125 9.9325 -12.8125 12.3125 C-11.0563401 14.0686599 -8.55246122 13.48387442 -6.16796875 13.5234375 C-5.01619141 13.55179688 -3.86441406 13.58015625 -2.67773438 13.609375 C-0.23777909 13.66120623 2.20234739 13.70555133 4.64257812 13.7421875 C5.79822266 13.773125 6.95386719 13.8040625 8.14453125 13.8359375 C9.20647705 13.85575684 10.26842285 13.87557617 11.36254883 13.89599609 C14.53610541 14.36389753 15.91639352 15.07792342 18.1875 17.3125 C19.60546508 21.56639525 20.03514022 25.46763599 18.125 29.625 C12.61233046 34.42635734 4.43489689 33.67877868 -2.4375 33.6875 C-3.46101563 33.71199219 -4.48453125 33.73648438 -5.5390625 33.76171875 C-13.01904206 33.79093742 -13.01904206 33.79093742 -16.9609375 31.4140625 C-19.99935716 27.96539208 -19.91077778 25.83327786 -19.8125 21.3125 C-18.1625 21.3125 -16.5125 21.3125 -14.8125 21.3125 C-14.1525 23.6225 -13.4925 25.9325 -12.8125 28.3125 C-4.2325 27.9825 4.3475 27.6525 13.1875 27.3125 C13.1875 25.3325 13.1875 23.3525 13.1875 21.3125 C11.46582171 19.59082171 9.14533966 20.14238908 6.796875 20.1015625 C5.69472656 20.07320312 4.59257812 20.04484375 3.45703125 20.015625 C1.12645578 19.96389192 -1.20429568 19.91951897 -3.53515625 19.8828125 C-4.64246094 19.851875 -5.74976563 19.8209375 -6.890625 19.7890625 C-7.90543945 19.76924316 -8.92025391 19.74942383 -9.96582031 19.72900391 C-13.52433699 19.20834958 -16.24916752 17.87583248 -18.8125 15.3125 C-19.05078125 12.9140625 -19.05078125 12.9140625 -19.125 9.9375 C-19.16238281 8.96039063 -19.19976563 7.98328125 -19.23828125 6.9765625 C-18.8125 4.3125 -18.8125 4.3125 -17.04296875 2.5234375 C-11.69279341 -0.38121111 -5.93964523 0.05834622 0 0 Z " fill="#FEF2E0" transform="translate(22.8125,56.6875)"/>
<path d="M0 0 C1.32 0 2.64 0 4 0 C5.80230168 3.82989106 6.19622241 6.78121808 6 11 C6.99 11.33 7.98 11.66 9 12 C9 12.66 9 13.32 9 14 C8.01 14 7.02 14 6 14 C5.90525391 14.88751953 5.90525391 14.88751953 5.80859375 15.79296875 C5.62490234 16.97826172 5.62490234 16.97826172 5.4375 18.1875 C5.33308594 18.96480469 5.22867188 19.74210937 5.12109375 20.54296875 C3.346456 24.43233161 0.87054374 26.43060339 -3 28 C-7.66548278 28.59204026 -12.2444673 28.47246179 -16.9375 28.3125 C-18.19369141 28.28994141 -19.44988281 28.26738281 -20.74414062 28.24414062 C-23.83066415 28.18546147 -26.91470486 28.10340527 -30 28 C-30 27.67 -30 27.34 -30 27 C-29.26885986 26.98541748 -28.53771973 26.97083496 -27.78442383 26.95581055 C-24.45992629 26.8811709 -21.13641533 26.78456199 -17.8125 26.6875 C-16.66201172 26.66494141 -15.51152344 26.64238281 -14.32617188 26.61914062 C-13.21435547 26.58369141 -12.10253906 26.54824219 -10.95703125 26.51171875 C-9.42526245 26.47244263 -9.42526245 26.47244263 -7.86254883 26.43237305 C-4.57601553 25.93595936 -2.66040909 24.96966096 0 23 C1.34689915 20.42900598 1.34689915 20.42900598 2 18 C0.35 18 -1.3 18 -3 18 C-3.28875 18.639375 -3.5775 19.27875 -3.875 19.9375 C-5 22 -5 22 -7 23 C-10.63946843 23.29295155 -14.28761064 23.27787107 -17.9375 23.3125 C-18.95263672 23.34150391 -19.96777344 23.37050781 -21.01367188 23.40039062 C-21.98755859 23.40876953 -22.96144531 23.41714844 -23.96484375 23.42578125 C-25.30470337 23.44765503 -25.30470337 23.44765503 -26.67163086 23.4699707 C-29 23 -29 23 -30.81469727 21.41088867 C-32 19 -32 19 -32 12 C-20.78 12 -9.56 12 2 12 C1.41905818 3.90795938 1.41905818 3.90795938 0 0 Z " fill="#EE944C" transform="translate(87,62)"/>
<path d="M0 0 C0.33 0 0.66 0 1 0 C1 54.78 1 109.56 1 166 C0.67 166 0.34 166 0 166 C-0.33 145.21 -0.66 124.42 -1 103 C-1.66 104.65 -2.32 106.3 -3 108 C-8.08108108 112 -8.08108108 112 -12 112 C-12 111.01 -12 110.02 -12 109 C-11.01 109 -10.02 109 -9 109 C-9.41572266 108.18595703 -9.41572266 108.18595703 -9.83984375 107.35546875 C-10.20207031 106.64003906 -10.56429687 105.92460938 -10.9375 105.1875 C-11.29714844 104.47980469 -11.65679687 103.77210937 -12.02734375 103.04296875 C-13 101 -13 101 -14 98 C-11.50638429 99.20381448 -9.31856917 100.45428722 -7 102 C-6.89171875 101.40574219 -6.7834375 100.81148438 -6.671875 100.19921875 C-5.92403931 97.75136122 -4.96367144 96.67819068 -3.25 94.8125 C-1.86349587 93.12372855 -1.86349587 93.12372855 -1 91 C-1.37240613 88.6084735 -1.37240613 88.6084735 -2.359375 86.26171875 C-2.65811523 85.46080811 -2.95685547 84.65989746 -3.26464844 83.8347168 C-3.50731445 83.22926025 -3.74998047 82.62380371 -4 82 C-4.98919434 82.01571045 -5.97838867 82.0314209 -6.99755859 82.04760742 C-10.66137577 82.1018346 -14.32515737 82.13632336 -17.98925781 82.16479492 C-19.57623251 82.17989814 -21.16316537 82.20038223 -22.75 82.22631836 C-25.02875073 82.26263595 -27.30695058 82.27971023 -29.5859375 82.29296875 C-30.29744965 82.30845261 -31.00896179 82.32393646 -31.74203491 82.33988953 C-33.74365234 82.34057617 -33.74365234 82.34057617 -37 82 C-37.66 81.01 -38.32 80.02 -39 79 C-34.67668037 78.97519938 -30.35339894 78.95709242 -26.0300293 78.94506836 C-24.56062091 78.94005331 -23.09121748 78.93323967 -21.62182617 78.92456055 C-19.50438205 78.91237072 -17.38700417 78.90674331 -15.26953125 78.90234375 C-13.36071167 78.89448853 -13.36071167 78.89448853 -11.41333008 78.88647461 C-8.4629081 78.98460394 -5.86053325 79.30936165 -3 80 C-3.10991641 75.91611387 -3.24053855 71.83314589 -3.375 67.75 C-3.4059375 66.59113281 -3.436875 65.43226562 -3.46875 64.23828125 C-3.50742188 63.12324219 -3.54609375 62.00820312 -3.5859375 60.859375 C-3.6173584 59.83295898 -3.6487793 58.80654297 -3.68115234 57.74902344 C-3.99636625 55.03132927 -4.61032351 53.33075565 -6 51 C-4.68 51 -3.36 51 -2 51 C-1.505 56.94 -1.505 56.94 -1 63 C-0.67 42.21 -0.34 21.42 0 0 Z " fill="#F6903F" transform="translate(179,9)"/>
<path d="M0 0 C0.87591797 0.00322266 1.75183594 0.00644531 2.65429688 0.00976562 C3.56115234 0.01814453 4.46800781 0.02652344 5.40234375 0.03515625 C6.31306641 0.03966797 7.22378906 0.04417969 8.16210938 0.04882812 C9.85035508 0.05753684 11.53859234 0.06830052 13.22680664 0.08178711 C15.81251398 0.10120606 18.38466541 0.09585806 20.96875 -0.0078125 C21.93683594 -0.03488281 22.90492188 -0.06195313 23.90234375 -0.08984375 C24.87300781 -0.12464844 25.84367187 -0.15945312 26.84375 -0.1953125 C27.66746094 -0.09863281 28.49117187 -0.00195312 29.33984375 0.09765625 C31.64148257 3.55011449 31.68474697 5.04504338 31.33984375 9.09765625 C29.33984375 11.09765625 29.33984375 11.09765625 27.17578125 11.29296875 C25.95761719 11.25816406 25.95761719 11.25816406 24.71484375 11.22265625 C23.89757812 11.20460938 23.0803125 11.1865625 22.23828125 11.16796875 C21.61179688 11.14476563 20.9853125 11.1215625 20.33984375 11.09765625 C20.33984375 12.08765625 20.33984375 13.07765625 20.33984375 14.09765625 C19.67984375 14.09765625 19.01984375 14.09765625 18.33984375 14.09765625 C18.33984375 13.43765625 18.33984375 12.77765625 18.33984375 12.09765625 C17.72109375 12.24203125 17.10234375 12.38640625 16.46484375 12.53515625 C12.1289559 13.31561606 7.74504904 13.91818492 3.33984375 14.09765625 C2.33984375 13.09765625 2.33984375 13.09765625 2.27734375 9.53515625 C2.29796875 8.40078125 2.31859375 7.26640625 2.33984375 6.09765625 C0.35984375 6.42765625 -1.62015625 6.75765625 -3.66015625 7.09765625 C-3.99015625 8.41765625 -4.32015625 9.73765625 -4.66015625 11.09765625 C-5.98015625 11.09765625 -7.30015625 11.09765625 -8.66015625 11.09765625 C-8.66015625 7.79765625 -8.66015625 4.49765625 -8.66015625 1.09765625 C-5.41684946 0.28682955 -3.25035667 -0.02133426 0 0 Z " fill="#FBC288" transform="translate(132.66015625,105.90234375)"/>
<path d="M0 0 C-0.598125 0.28875 -1.19625 0.5775 -1.8125 0.875 C-4.19327792 2.04742026 -4.19327792 2.04742026 -7 4 C-7.55473943 6.55466919 -7.55473943 6.55466919 -7.5 9.4375 C-7.5309375 10.40558594 -7.561875 11.37367187 -7.59375 12.37109375 C-7.25879244 15.17122099 -7.25879244 15.17122099 -4.83081055 16.63671875 C-1.67611625 18.15597817 0.40330921 18.3949311 3.88671875 18.44140625 C4.98951172 18.46783203 6.09230469 18.49425781 7.22851562 18.52148438 C8.94071289 18.54178711 8.94071289 18.54178711 10.6875 18.5625 C12.96238631 18.59683311 15.23716834 18.63937841 17.51171875 18.69140625 C18.51678467 18.70373291 19.52185059 18.71605957 20.55737305 18.72875977 C23 19 23 19 25 21 C25.1875 24.0625 25.1875 24.0625 25 27 C22.34285458 29.65714542 14.63945491 28.23491532 11.0625 28.25 C9.84369141 28.270625 8.62488281 28.29125 7.36914062 28.3125 C6.20705078 28.31765625 5.04496094 28.3228125 3.84765625 28.328125 C2.77523682 28.3374707 1.70281738 28.34681641 0.59790039 28.35644531 C-0.6880603 28.18000488 -0.6880603 28.18000488 -2 28 C-4 25 -4 25 -4 21 C-5.65 21 -7.3 21 -9 21 C-8.7525 22.258125 -8.505 23.51625 -8.25 24.8125 C-8.11078125 25.52019531 -7.9715625 26.22789063 -7.828125 26.95703125 C-6.73025036 29.66546728 -5.47617032 30.47409037 -3 32 C-0.54479317 32.45736632 -0.54479317 32.45736632 2.10546875 32.3984375 C3.58176758 32.40423828 3.58176758 32.40423828 5.08789062 32.41015625 C6.11076172 32.39855469 7.13363281 32.38695312 8.1875 32.375 C9.19103516 32.38660156 10.19457031 32.39820313 11.22851562 32.41015625 C17.6845305 32.38495385 23.02855074 31.47191535 29 29 C27.54713314 32.75323939 27.54713314 32.75323939 25.35058594 33.74389648 C22.02768622 34.10593656 18.72806311 34.12222232 15.390625 34.09765625 C14.66381531 34.0962413 13.93700562 34.09482635 13.18817139 34.09336853 C10.87540506 34.08778792 8.56273688 34.07523904 6.25 34.0625 C4.67838682 34.05748249 3.10677211 34.05292002 1.53515625 34.04882812 C-2.30993343 34.03782485 -6.1549501 34.02057361 -10 34 C-9.01 33.505 -9.01 33.505 -8 33 C-8 32.01 -8 31.02 -8 30 C-9.32 30 -10.64 30 -12 30 C-12 24.72 -12 19.44 -12 14 C-11.34 14 -10.68 14 -10 14 C-10.11859375 13.40832031 -10.2371875 12.81664063 -10.359375 12.20703125 C-11.03009048 8.09554534 -11.37198087 5.75946095 -9.5 1.9375 C-6.20522591 -0.61594992 -4.06533399 -0.3908975 0 0 Z " fill="#E89147" transform="translate(12,57)"/>
<path d="M0 0 C0.66 0 1.32 0 2 0 C2 0.99 2 1.98 2 3 C2.62648438 2.96519531 3.25296875 2.93039063 3.8984375 2.89453125 C5.12433594 2.85392578 5.12433594 2.85392578 6.375 2.8125 C7.18710937 2.77769531 7.99921875 2.74289063 8.8359375 2.70703125 C9.55007812 2.80371094 10.26421875 2.90039062 11 3 C12.9451 5.91765 13.45276317 7.62537285 14 11 C14 8.69 14 6.38 14 4 C15.9375 4.6875 15.9375 4.6875 18 6 C18.75 8.625 18.75 8.625 19 11 C19.66 11 20.32 11 21 11 C21.66 8.69 22.32 6.38 23 4 C23.99 4 24.98 4 26 4 C25.42923471 7.87157659 24.32887202 10.54351942 22.1875 13.8125 C21.68605469 14.60269531 21.18460938 15.39289063 20.66796875 16.20703125 C20.11753906 16.79871094 19.56710938 17.39039062 19 18 C17.68 18 16.36 18 15 18 C15 17.34 15 16.68 15 16 C14.05125 15.79375 13.1025 15.5875 12.125 15.375 C9 14 9 14 7.625 10.875 C7.41875 9.92625 7.2125 8.9775 7 8 C6.34 8 5.68 8 5 8 C4.67 10.97 4.34 13.94 4 17 C-1.67349291 16.37946171 -7.33836143 15.72057218 -13 15 C-13 15.66 -13 16.32 -13 17 C-13.99 16.67 -14.98 16.34 -16 16 C-16 12.04 -16 8.08 -16 4 C-12.45011229 3.11252807 -9.85819222 2.89454533 -6.25 2.9375 C-5.26515625 2.94652344 -4.2803125 2.95554687 -3.265625 2.96484375 C-2.14414062 2.98224609 -2.14414062 2.98224609 -1 3 C-0.67 2.01 -0.34 1.02 0 0 Z " fill="#F1B577" transform="translate(19,103)"/>
<path d="M0 0 C1.07185547 -0.01546875 2.14371094 -0.0309375 3.24804688 -0.046875 C9.46545169 -0.01607671 13.38980947 0.25069988 18.0625 4.5 C20.36005922 7.94633882 20.29893976 9.21068391 20.2578125 13.26171875 C20.25136719 14.37998047 20.24492187 15.49824219 20.23828125 16.65039062 C20.22152344 17.81763672 20.20476562 18.98488281 20.1875 20.1875 C20.17847656 21.36634766 20.16945312 22.54519531 20.16015625 23.75976562 C20.13656423 26.67338026 20.1036454 29.58658892 20.0625 32.5 C18.4125 32.5 16.7625 32.5 15.0625 32.5 C13.96021304 28.09085217 13.98595464 24.01617599 14.0625 19.5 C8.75259497 17.35862846 3.82954593 17.07892937 -1.8125 16.875 C-2.69164062 16.83632812 -3.57078125 16.79765625 -4.4765625 16.7578125 C-6.62988793 16.66418966 -8.78366414 16.58103541 -10.9375 16.5 C-10.6075 15.84 -10.2775 15.18 -9.9375 14.5 C-6.3333502 14.47099545 -2.72923038 14.45319982 0.875 14.4375 C1.89916016 14.42912109 2.92332031 14.42074219 3.97851562 14.41210938 C5.45288086 14.40727539 5.45288086 14.40727539 6.95703125 14.40234375 C7.86300049 14.39710693 8.76896973 14.39187012 9.70239258 14.38647461 C12.0625 14.5 12.0625 14.5 15.0625 15.5 C15.0625 12.86 15.0625 10.22 15.0625 7.5 C12.00330612 6.48026871 9.93831975 6.38466398 6.73828125 6.40234375 C5.19624023 6.40717773 5.19624023 6.40717773 3.62304688 6.41210938 C2.01526367 6.42467773 2.01526367 6.42467773 0.375 6.4375 C-1.25018555 6.44426758 -1.25018555 6.44426758 -2.90820312 6.45117188 C-5.58469085 6.46296257 -8.26106777 6.47941937 -10.9375 6.5 C-11.2675 7.82 -11.5975 9.14 -11.9375 10.5 C-13.5875 10.5 -15.2375 10.5 -16.9375 10.5 C-17.25 7.75 -17.25 7.75 -16.9375 4.5 C-12.47533524 -0.96467755 -6.47075781 -0.09304864 0 0 Z " fill="#FCEBD8" transform="translate(155.9375,56.5)"/>
<path d="M0 0 C1.98 0 3.96 0 6 0 C6.33773437 0.69867188 6.67546875 1.39734375 7.0234375 2.1171875 C7.46945313 3.02726562 7.91546875 3.93734375 8.375 4.875 C8.81585938 5.77992187 9.25671875 6.68484375 9.7109375 7.6171875 C10.90502699 10.09534472 10.90502699 10.09534472 13 12 C13 13.32 13 14.64 13 16 C13.66 16 14.32 16 15 16 C19 22.75 19 22.75 19 25 C19.66 25 20.32 25 21 25 C21.35771484 24.01193359 21.35771484 24.01193359 21.72265625 23.00390625 C23.36110966 19.15078493 25.3731563 15.57594747 27.4375 11.9375 C27.83259766 11.23044922 28.22769531 10.52339844 28.63476562 9.79492188 C32.79467953 2.42336063 32.79467953 2.42336063 35 0 C37.6875 -0.25 37.6875 -0.25 40 0 C40 0.99 40 1.98 40 3 C39.34 3 38.68 3 38 3 C38 3.99 38 4.98 38 6 C37.34 6 36.68 6 36 6 C35.67 7.98 35.34 9.96 35 12 C34.34 12 33.68 12 33 12 C32.86464844 12.53367187 32.72929688 13.06734375 32.58984375 13.6171875 C30.6996155 20.15941462 27.87686318 26.14300184 23 31 C19.0625 31.625 19.0625 31.625 16 31 C16 30.01 16 29.02 16 28 C15.34 28 14.68 28 14 28 C11 22.25 11 22.25 11 20 C10.34 20 9.68 20 9 20 C7.23537317 16.91190305 7 15.76687864 7 12 C6.34 12 5.68 12 5 12 C3.7109375 10.390625 3.7109375 10.390625 2.375 8.25 C1.92898437 7.55390625 1.48296875 6.8578125 1.0234375 6.140625 C0 4 0 4 0 0 Z " fill="#FBE2C6" transform="translate(93,58)"/>
<path d="M0 0 C0.95455078 -0.020625 1.90910156 -0.04125 2.89257812 -0.0625 C3.81361328 -0.06765625 4.73464844 -0.0728125 5.68359375 -0.078125 C6.5233374 -0.0874707 7.36308105 -0.09681641 8.22827148 -0.10644531 C10.5625 0.25 10.5625 0.25 14.5625 3.25 C6.6425 3.58 -1.2775 3.91 -9.4375 4.25 C-10.4275 6.56 -11.4175 8.87 -12.4375 11.25 C-2.8675 11.25 6.7025 11.25 16.5625 11.25 C16.0675 7.29 16.0675 7.29 15.5625 3.25 C18 3.625 18 3.625 20.5625 4.25 C21.5625 6.25 21.5625 6.25 21.5625 15.25 C10.3425 15.58 -0.8775 15.91 -12.4375 16.25 C-12.80643239 22.6702491 -12.80643239 22.6702491 -11.4375 26.25 C-12.4275 25.92 -13.4175 25.59 -14.4375 25.25 C-14.4375 23.93 -14.4375 22.61 -14.4375 21.25 C-15.4275 21.25 -16.4175 21.25 -17.4375 21.25 C-17.5456866 18.66554227 -17.62487237 16.08562648 -17.6875 13.5 C-17.72101562 12.77039063 -17.75453125 12.04078125 -17.7890625 11.2890625 C-17.85379919 7.72854464 -17.76812417 5.69365807 -15.609375 2.796875 C-10.82346647 -0.61179366 -5.63517125 0.03031699 0 0 Z " fill="#FDF2E1" transform="translate(67.4375,58.75)"/>
<path d="M0 0 C1.32 0 2.64 0 4 0 C4 0.99 4 1.98 4 3 C8.32330779 3.0496011 12.64646285 3.0858144 16.9699707 3.10986328 C18.43940112 3.11989352 19.90881171 3.13352101 21.37817383 3.15087891 C23.49565537 3.17525898 25.61287199 3.18651286 27.73046875 3.1953125 C29.00301514 3.20578613 30.27556152 3.21625977 31.58666992 3.22705078 C34.89836294 3.00676078 36.99175083 2.29441414 40 1 C41.32 1 42.64 1 44 1 C43.61402985 3.79828356 43.19863427 4.8205884 41.0625 6.75 C39 8 39 8 37 8 C37 10.97 37 13.94 37 17 C36.01 17 35.02 17 34 17 C33.505 15.515 33.505 15.515 33 14 C32.67 14.99 32.34 15.98 32 17 C31.34 17 30.68 17 30 17 C29.67 14.36 29.34 11.72 29 9 C28.01 9 27.02 9 26 9 C26.33 10.98 26.66 12.96 27 15 C25.35 15.33 23.7 15.66 22 16 C20.875 11.25 20.875 11.25 22 9 C20.68 9 19.36 9 18 9 C18 9.66 18 10.32 18 11 C17.34 11 16.68 11 16 11 C16 9.68 16 8.36 16 7 C15.01 7 14.02 7 13 7 C13.33 8.32 13.66 9.64 14 11 C11.6875 11.6875 11.6875 11.6875 9 12 C7.1875 10.5625 7.1875 10.5625 6 9 C5.34 9.66 4.68 10.32 4 11 C2.68 11 1.36 11 0 11 C0 7.37 0 3.74 0 0 Z " fill="#F88325" transform="translate(0,87)"/>
<path d="M0 0 C1.12341797 -0.01224609 2.24683594 -0.02449219 3.40429688 -0.03710938 C5.01208008 -0.04000977 5.01208008 -0.04000977 6.65234375 -0.04296875 C8.13528931 -0.04913208 8.13528931 -0.04913208 9.64819336 -0.05541992 C12.0625 0.1875 12.0625 0.1875 14.0625 2.1875 C14.1875 5.3125 14.1875 5.3125 14.0625 8.1875 C10.54422372 9.77995395 7.83552648 10.43011382 3.98046875 10.3828125 C2.58344727 10.37314453 2.58344727 10.37314453 1.15820312 10.36328125 C0.19849609 10.34652344 -0.76121094 10.32976562 -1.75 10.3125 C-2.72904297 10.30347656 -3.70808594 10.29445313 -4.71679688 10.28515625 C-7.12395061 10.26167182 -9.53059743 10.2288284 -11.9375 10.1875 C-13.42856457 7.20537087 -13.05691467 4.47140342 -12.9375 1.1875 C-10.40440278 -1.34559722 -3.40755092 0.00194829 0 0 Z " fill="#EE8733" transform="translate(155.9375,74.8125)"/>
<path d="M0 0 C1.01449219 0.00322266 2.02898437 0.00644531 3.07421875 0.00976562 C4.08097656 -0.00634766 5.08773437 -0.02246094 6.125 -0.0390625 C7.09566406 -0.03970703 8.06632812 -0.04035156 9.06640625 -0.04101562 C9.95440918 -0.04399658 10.84241211 -0.04697754 11.75732422 -0.05004883 C14.75980298 0.40773763 16.1205129 1.1066517 18.19921875 3.32226562 C18.19921875 4.97226563 18.19921875 6.62226562 18.19921875 8.32226562 C8.62921875 8.32226562 -0.94078125 8.32226562 -10.80078125 8.32226562 C-9.35959605 -0.32484556 -7.75463511 0.0567916 0 0 Z " fill="#EF8F41" transform="translate(65.80078125,61.677734375)"/>
<path d="M0 0 C8.91 0 17.82 0 27 0 C26 7 26 7 25 8 C21.19482733 8.27957408 17.37672654 8.2317828 13.5625 8.25 C11.94891602 8.2809375 11.94891602 8.2809375 10.30273438 8.3125 C8.76262695 8.32023437 8.76262695 8.32023437 7.19140625 8.328125 C6.24467041 8.3374707 5.29793457 8.34681641 4.32250977 8.35644531 C3.55608154 8.23881836 2.78965332 8.12119141 2 8 C0 5 0 5 0 0 Z " fill="#F58326" transform="translate(57,76)"/>
<path d="M0 0 C0.88945312 0.00322266 1.77890625 0.00644531 2.6953125 0.00976562 C4.07589844 0.02233398 4.07589844 0.02233398 5.484375 0.03515625 C6.42023438 0.03966797 7.35609375 0.04417969 8.3203125 0.04882812 C10.62502747 0.06058687 12.92970946 0.07852157 15.234375 0.09765625 C15.234375 3.39765625 15.234375 6.69765625 15.234375 10.09765625 C14.574375 10.09765625 13.914375 10.09765625 13.234375 10.09765625 C13.234375 9.10765625 13.234375 8.11765625 13.234375 7.09765625 C10.594375 7.09765625 7.954375 7.09765625 5.234375 7.09765625 C5.564375 7.75765625 5.894375 8.41765625 6.234375 9.09765625 C8.76170735 9.75320744 8.76170735 9.75320744 11.234375 10.09765625 C11.234375 10.42765625 11.234375 10.75765625 11.234375 11.09765625 C8.594375 11.09765625 5.954375 11.09765625 3.234375 11.09765625 C2.904375 9.44765625 2.574375 7.79765625 2.234375 6.09765625 C0.254375 6.42765625 -1.725625 6.75765625 -3.765625 7.09765625 C-4.095625 8.41765625 -4.425625 9.73765625 -4.765625 11.09765625 C-6.085625 11.09765625 -7.405625 11.09765625 -8.765625 11.09765625 C-8.765625 7.79765625 -8.765625 4.49765625 -8.765625 1.09765625 C-5.49305732 0.27951433 -3.28568601 -0.02106209 0 0 Z " fill="#E59C60" transform="translate(132.765625,105.90234375)"/>
<path d="M0 0 C4.29 0 8.58 0 13 0 C12.67 1.65 12.34 3.3 12 5 C12.99 5 13.98 5 15 5 C15 3.35 15 1.7 15 0 C15.99 0 16.98 0 18 0 C18 3.3 18 6.6 18 10 C15.16612485 11.41693757 12.71970627 11.1699013 9.5625 11.1875 C8.40878906 11.20167969 7.25507812 11.21585938 6.06640625 11.23046875 C3 11 3 11 0 9 C-0.41137202 5.96133201 -0.13193156 3.07840297 0 0 Z " fill="#F5C48A" transform="translate(46,107)"/>
<path d="M0 0 C1.98 0 3.96 0 6 0 C6.33773437 0.69867188 6.67546875 1.39734375 7.0234375 2.1171875 C7.46945313 3.02726562 7.91546875 3.93734375 8.375 4.875 C8.81585938 5.77992187 9.25671875 6.68484375 9.7109375 7.6171875 C10.90502699 10.09534472 10.90502699 10.09534472 13 12 C13 13.32 13 14.64 13 16 C13.66 16 14.32 16 15 16 C18.22265625 21.2734375 18.22265625 21.2734375 19 23 C18.67 23.66 18.34 24.32 18 25 C18 25.66 18 26.32 18 27 C18 27.99 18 28.98 18 30 C19.65 30 21.3 30 23 30 C23 30.33 23 30.66 23 31 C20.69 31 18.38 31 16 31 C16 30.01 16 29.02 16 28 C15.34 28 14.68 28 14 28 C11 22.25 11 22.25 11 20 C10.34 20 9.68 20 9 20 C7.23537317 16.91190305 7 15.76687864 7 12 C6.34 12 5.68 12 5 12 C3.7109375 10.390625 3.7109375 10.390625 2.375 8.25 C1.92898437 7.55390625 1.48296875 6.8578125 1.0234375 6.140625 C0 4 0 4 0 0 Z " fill="#FAE8CF" transform="translate(93,58)"/>
<path d="M0 0 C4.14581887 -0.02886751 8.29161216 -0.04675327 12.4375 -0.0625 C14.21350586 -0.07506836 14.21350586 -0.07506836 16.02539062 -0.08789062 C17.15009766 -0.09111328 18.27480469 -0.09433594 19.43359375 -0.09765625 C20.47572021 -0.10289307 21.51784668 -0.10812988 22.59155273 -0.11352539 C25 0 25 0 26 1 C26 2.98 26 4.96 26 7 C17.75 7 9.5 7 1 7 C0.67 4.69 0.34 2.38 0 0 Z " fill="#F0822E" transform="translate(9,77)"/>
<path d="M0 0 C1.22589844 -0.00257812 2.45179688 -0.00515625 3.71484375 -0.0078125 C6.39012431 0.09832465 8.53177428 0.32582346 11.0625 1.125 C11.0625 1.785 11.0625 2.445 11.0625 3.125 C12.0525 3.455 13.0425 3.785 14.0625 4.125 C14.0625 5.445 14.0625 6.765 14.0625 8.125 C1.1925 7.63 1.1925 7.63 -11.9375 7.125 C-11.2775 5.145 -10.6175 3.165 -9.9375 1.125 C-6.45291293 -0.03652902 -3.67059492 -0.00770324 0 0 Z " fill="#F77F1F" transform="translate(155.9375,61.875)"/>
<path d="M0 0 C0.99 0.66 1.98 1.32 3 2 C3.36750064 5.36875585 3.57975504 7.87672462 2 10.9375 C-1.23673698 12.65701652 -4.42307129 12.53653931 -8 12 C-10 10.875 -10 10.875 -11 9 C-11.38601984 5.91184125 -11.47901666 3.89815624 -10 1.125 C-6.85103686 -0.64629177 -3.52961671 -0.54794453 0 0 Z " fill="#F9CA98" transform="translate(77,106)"/>
<path d="M0 0 C0.66 0.33 1.32 0.66 2 1 C2 8.26 2 15.52 2 23 C0.68 23 -0.64 23 -2 23 C-3.3271261 19.0186217 -3.06915913 15.14954773 -3 11 C-8.30990503 8.85862846 -13.23295407 8.57892937 -18.875 8.375 C-19.75414062 8.33632812 -20.63328125 8.29765625 -21.5390625 8.2578125 C-23.69238793 8.16418966 -25.84616414 8.08103541 -28 8 C-27.67 7.34 -27.34 6.68 -27 6 C-18.42 6 -9.84 6 -1 6 C-0.67 4.02 -0.34 2.04 0 0 Z " fill="#FBFBF5" transform="translate(173,65)"/>
<path d="M0 0 C2.375 1 2.375 1 4 2 C4 4.64 4 7.28 4 10 C1.49860398 11.25069801 -0.27392691 11.13302467 -3.0625 11.125 C-4.41021484 11.12886719 -4.41021484 11.12886719 -5.78515625 11.1328125 C-8 11 -8 11 -9 10 C-9.37086093 4.1589404 -9.37086093 4.1589404 -9 2 C-5.51195905 -0.32536063 -4.09859246 -0.33457898 0 0 Z " fill="#EBA567" transform="translate(118,106)"/>
<path d="M0 0 C0 0.99 0 1.98 0 3 C-0.66 2.67 -1.32 2.34 -2 2 C-1.360625 3.0725 -0.72125 4.145 -0.0625 5.25 C1.40601273 7.80822182 2.52854542 10.05340886 3 13 C2.01 13 1.02 13 0 13 C0 13.99 0 14.98 0 16 C1.98 15.01 3.96 14.02 6 13 C6 14.32 6 15.64 6 17 C4.906875 17.28875 3.81375 17.5775 2.6875 17.875 C-1.04013845 18.81893204 -1.04013845 18.81893204 -4 21 C-4.99 21 -5.98 21 -7 21 C-7 20.34 -7 19.68 -7 19 C-6.01 19 -5.02 19 -4 19 C-4.33 17.68 -4.66 16.36 -5 15 C-7.64 15 -10.28 15 -13 15 C-13.33 14.01 -13.66 13.02 -14 12 C-13.36191406 11.93941406 -12.72382813 11.87882812 -12.06640625 11.81640625 C-11.24011719 11.73261719 -10.41382813 11.64882812 -9.5625 11.5625 C-8.73878906 11.48128906 -7.91507813 11.40007812 -7.06640625 11.31640625 C-5.01337975 11.21069185 -5.01337975 11.21069185 -4 10 C-4 8.865625 -4 7.73125 -4 6.5625 C-4 3 -4 3 -3 1 C-2.01 0.67 -1.02 0.34 0 0 Z " fill="#EE8832" transform="translate(167,105)"/>
<path d="M0 0 C1.45889648 -0.03673828 1.45889648 -0.03673828 2.94726562 -0.07421875 C9.26073732 -0.09986589 13.00803733 0.71975856 18.1875 4.375 C18.1875 6.355 18.1875 8.335 18.1875 10.375 C16.5375 10.375 14.8875 10.375 13.1875 10.375 C12.5275 9.055 11.8675 7.735 11.1875 6.375 C3.9275 6.045 -3.3325 5.715 -10.8125 5.375 C-10.8125 5.045 -10.8125 4.715 -10.8125 4.375 C-3.2225 4.375 4.3675 4.375 12.1875 4.375 C12.1875 3.715 12.1875 3.055 12.1875 2.375 C3.2775 2.375 -5.6325 2.375 -14.8125 2.375 C-9.67813099 -0.19218451 -5.64861935 0.00739832 0 0 Z " fill="#FDE0C1" transform="translate(22.8125,56.625)"/>
<path d="M0 0 C10.89 0 21.78 0 33 0 C33 0.99 33 1.98 33 3 C31.68 3.33 30.36 3.66 29 4 C29 3.34 29 2.68 29 2 C20.09 2 11.18 2 2 2 C2.66 4.31 3.32 6.62 4 9 C10.93 9.33 17.86 9.66 25 10 C25 10.33 25 10.66 25 11 C21.39610336 11.11601004 17.79268533 11.18718408 14.1875 11.25 C13.16333984 11.28351563 12.13917969 11.31703125 11.08398438 11.3515625 C10.10107422 11.36445312 9.11816406 11.37734375 8.10546875 11.390625 C7.19949951 11.41157227 6.29353027 11.43251953 5.36010742 11.45410156 C3 11 3 11 1.1809082 9.41308594 C0 7 0 7 0 0 Z " fill="#EC9C5C" transform="translate(55,74)"/>
<path d="M0 0 C3.95827235 -0.05785647 7.9164367 -0.09354717 11.875 -0.125 C13.00292969 -0.14175781 14.13085938 -0.15851562 15.29296875 -0.17578125 C16.36933594 -0.18222656 17.44570313 -0.18867187 18.5546875 -0.1953125 C19.54968262 -0.20578613 20.54467773 -0.21625977 21.56982422 -0.22705078 C24 0 24 0 26 2 C26 2.99 26 3.98 26 5 C27.65 5 29.3 5 31 5 C31 3.35 31 1.7 31 0 C31.66 0 32.32 0 33 0 C33 2.31 33 4.62 33 7 C30.36 6.67 27.72 6.34 25 6 C24.67 5.01 24.34 4.02 24 3 C23.01 3 22.02 3 21 3 C21 2.34 21 1.68 21 1 C14.4 1.33 7.8 1.66 1 2 C1.33 3.65 1.66 5.3 2 7 C15.365 7.495 15.365 7.495 29 8 C29.33 8.99 29.66 9.98 30 11 C29.01 10.67 28.02 10.34 27 10 C25.03231646 9.87328838 23.06110153 9.79837071 21.08984375 9.75390625 C19.93548828 9.72103516 18.78113281 9.68816406 17.59179688 9.65429688 C15.15178995 9.59300328 12.71167895 9.53572394 10.27148438 9.48242188 C9.11841797 9.44826172 7.96535156 9.41410156 6.77734375 9.37890625 C5.71765381 9.3538501 4.65796387 9.32879395 3.56616211 9.30297852 C1 9 1 9 -1 7 C-0.625 3.375 -0.625 3.375 0 0 Z " fill="#E59755" transform="translate(10,62)"/>
<path d="M0 0 C2.31 0.33 4.62 0.66 7 1 C7 1.99 7 2.98 7 4 C6.01 4 5.02 4 4 4 C4 4.99 4 5.98 4 7 C-2.93 7 -9.86 7 -17 7 C-17 6.67 -17 6.34 -17 6 C-15.35 6 -13.7 6 -12 6 C-12 5.34 -12 4.68 -12 4 C-12.66 3.34 -13.32 2.68 -14 2 C-9.38 2 -4.76 2 0 2 C0 1.34 0 0.68 0 0 Z " fill="#F68226" transform="translate(162,76)"/>
<path d="M0 0 C0.9796875 0.00322266 1.959375 0.00644531 2.96875 0.00976562 C3.98453125 0.01814453 5.0003125 0.02652344 6.046875 0.03515625 C7.59375 0.04192383 7.59375 0.04192383 9.171875 0.04882812 C11.71360073 0.06059537 14.25520819 0.07703614 16.796875 0.09765625 C16.796875 0.75765625 16.796875 1.41765625 16.796875 2.09765625 C17.60125 2.22140625 18.405625 2.34515625 19.234375 2.47265625 C20.5028125 2.78203125 20.5028125 2.78203125 21.796875 3.09765625 C22.291875 4.08765625 22.291875 4.08765625 22.796875 5.09765625 C21.806875 5.09765625 20.816875 5.09765625 19.796875 5.09765625 C19.796875 5.75765625 19.796875 6.41765625 19.796875 7.09765625 C18.806875 6.76765625 17.816875 6.43765625 16.796875 6.09765625 C16.796875 5.43765625 16.796875 4.77765625 16.796875 4.09765625 C13.0642567 2.2313471 8.59216715 2.86966719 4.484375 2.84765625 C3.53369141 2.82703125 2.58300781 2.80640625 1.60351562 2.78515625 C-3.47821236 2.75674687 -7.09039014 2.73962944 -11.203125 6.09765625 C-12.40808409 7.08172936 -12.40808409 7.08172936 -12.31665039 8.95532227 C-12.31141357 9.74608154 -12.30617676 10.53684082 -12.30078125 11.3515625 C-12.29755859 12.20556641 -12.29433594 13.05957031 -12.29101562 13.93945312 C-12.28263672 14.83728516 -12.27425781 15.73511719 -12.265625 16.66015625 C-12.26111328 17.56185547 -12.25660156 18.46355469 -12.25195312 19.39257812 C-12.24012725 21.62766939 -12.2236472 23.86263062 -12.203125 26.09765625 C-15.28154738 23.01923387 -14.61142196 19.4092746 -14.640625 15.28515625 C-14.67349609 14.47755859 -14.70636719 13.66996094 -14.74023438 12.83789062 C-14.77932509 8.49882161 -14.61981744 6.64871949 -11.92578125 3.0859375 C-7.94462141 0.17860556 -4.85558942 -0.02823017 0 0 Z " fill="#FBD7AE" transform="translate(63.203125,56.90234375)"/>
<path d="M0 0 C0.66 0 1.32 0 2 0 C2 3.63 2 7.26 2 11 C-1.51243761 11.70248752 -4.77222501 12.23207433 -8.3125 12.5625 C-9.63701172 12.68818359 -9.63701172 12.68818359 -10.98828125 12.81640625 C-11.98408203 12.90728516 -11.98408203 12.90728516 -13 13 C-13.33 11.68 -13.66 10.36 -14 9 C-12.68 9 -11.36 9 -10 9 C-10.33 8.01 -10.66 7.02 -11 6 C-8.36 6 -5.72 6 -3 6 C-3 6.99 -3 7.98 -3 9 C-2.34 9 -1.68 9 -1 9 C-1.020625 7.700625 -1.04125 6.40125 -1.0625 5.0625 C-1.08399454 3.70834367 -1.07148199 2.35243917 -1 1 C-0.67 0.67 -0.34 0.34 0 0 Z " fill="#DF8C4C" transform="translate(149,107)"/>
<path d="M0 0 C0.66 0 1.32 0 2 0 C1.67 0.99 1.34 1.98 1 3 C0.78601563 3.76054688 0.57203125 4.52109375 0.3515625 5.3046875 C-2.42983752 15.14426391 -2.42983752 15.14426391 -5 18 C-8.1875 18.3125 -8.1875 18.3125 -11 18 C-12.0625 16.1875 -12.0625 16.1875 -13 14 C-12.67 13.01 -12.34 12.02 -12 11 C-10.68 11.66 -9.36 12.32 -8 13 C-7.690625 12.21625 -7.38125 11.4325 -7.0625 10.625 C-6 8 -6 8 -5 6 C-4.01 6 -3.02 6 -2 6 C-1.34 4.02 -0.68 2.04 0 0 Z " fill="#FAE7CC" transform="translate(122,70)"/>
<path d="M0 0 C1.81274414 0.01450195 1.81274414 0.01450195 3.66210938 0.02929688 C5.55606445 0.06700195 5.55606445 0.06700195 7.48828125 0.10546875 C9.39963867 0.12577148 9.39963867 0.12577148 11.34960938 0.14648438 C14.50042182 0.18188676 17.6503917 0.23127085 20.80078125 0.29296875 C20.80078125 0.95296875 20.80078125 1.61296875 20.80078125 2.29296875 C20.12499023 2.3180249 19.44919922 2.34308105 18.75292969 2.36889648 C15.68536445 2.48507617 12.61808967 2.60770312 9.55078125 2.73046875 C8.48730469 2.76978516 7.42382812 2.80910156 6.328125 2.84960938 C4.79091797 2.91245117 4.79091797 2.91245117 3.22265625 2.9765625 C1.80871582 3.03154907 1.80871582 3.03154907 0.36621094 3.08764648 C-1.94173252 3.27236103 -3.98062399 3.65158487 -6.19921875 4.29296875 C-6.19921875 6.93296875 -6.19921875 9.57296875 -6.19921875 12.29296875 C-7.18921875 12.29296875 -8.17921875 12.29296875 -9.19921875 12.29296875 C-9.28053338 10.85641021 -9.33855434 9.41852045 -9.38671875 7.98046875 C-9.42152344 7.17996094 -9.45632812 6.37945312 -9.4921875 5.5546875 C-9.19921875 3.29296875 -9.19921875 3.29296875 -8.06835938 1.66992188 C-5.36480438 -0.32172522 -3.3285173 -0.04688053 0 0 Z " fill="#FEFBF0" transform="translate(14.19921875,58.70703125)"/>
<path d="M0 0 C1.68319336 0.02707031 1.68319336 0.02707031 3.40039062 0.0546875 C6.16363447 0.10172144 8.92512698 0.16743683 11.6875 0.25 C11.6875 0.58 11.6875 0.91 11.6875 1.25 C0.3025 2.24 0.3025 2.24 -11.3125 3.25 C-9.9925 3.91 -8.6725 4.57 -7.3125 5.25 C-8.6325 5.58 -9.9525 5.91 -11.3125 6.25 C-11.6425 7.57 -11.9725 8.89 -12.3125 10.25 C-13.9625 10.25 -15.6125 10.25 -17.3125 10.25 C-17.625 7.5 -17.625 7.5 -17.3125 4.25 C-12.8281814 -1.35539825 -6.53066768 -0.19847733 0 0 Z " fill="#FCDFBD" transform="translate(156.3125,56.75)"/>
<path d="M0 0 C1.22589844 -0.00257812 2.45179688 -0.00515625 3.71484375 -0.0078125 C6.39012431 0.09832465 8.53177428 0.32582346 11.0625 1.125 C11.0625 1.785 11.0625 2.445 11.0625 3.125 C11.7225 3.455 12.3825 3.785 13.0625 4.125 C5.1425 4.125 -2.7775 4.125 -10.9375 4.125 C-10.6075 3.135 -10.2775 2.145 -9.9375 1.125 C-6.45291293 -0.03652902 -3.67059492 -0.00770324 0 0 Z " fill="#EF8530" transform="translate(155.9375,61.875)"/>
<path d="M0 0 C0 0.99 0 1.98 0 3 C-0.99 3.33 -1.98 3.66 -3 4 C-3 4.66 -3 5.32 -3 6 C-11.62046573 8.28706234 -19.31674354 8.05656074 -28 6 C-28.99 5.34 -29.98 4.68 -31 4 C-30.20303711 3.98541748 -29.40607422 3.97083496 -28.58496094 3.95581055 C-24.97281876 3.88132525 -21.36160026 3.78466488 -17.75 3.6875 C-15.86861328 3.65366211 -15.86861328 3.65366211 -13.94921875 3.61914062 C-12.74394531 3.58369141 -11.53867188 3.54824219 -10.296875 3.51171875 C-8.63156738 3.47244263 -8.63156738 3.47244263 -6.93261719 3.43237305 C-3.7499137 2.9631283 -2.34626523 2.14408706 0 0 Z " fill="#EA8535" transform="translate(88,86)"/>
<path d="M0 0 C1.65 0 3.3 0 5 0 C7.125 6.625 7.125 6.625 6 10 C13.59 10.33 21.18 10.66 29 11 C29 11.33 29 11.66 29 12 C25.27109745 12.1164862 21.54266486 12.18734576 17.8125 12.25 C16.22985352 12.30027344 16.22985352 12.30027344 14.61523438 12.3515625 C6.75709587 12.45071882 6.75709587 12.45071882 2.82421875 10.109375 C-0.17235815 6.64438244 -0.09805651 4.51059933 0 0 Z " fill="#F9D5B5" transform="translate(3,78)"/>
<path d="M0 0 C0.66 0 1.32 0 2 0 C2 0.99 2 1.98 2 3 C2.95712891 2.98259766 2.95712891 2.98259766 3.93359375 2.96484375 C5.17302734 2.95130859 5.17302734 2.95130859 6.4375 2.9375 C7.26121094 2.92589844 8.08492187 2.91429688 8.93359375 2.90234375 C11 3 11 3 12 4 C12.07179964 5.51928038 12.08392007 7.04167482 12.0625 8.5625 C12.05347656 9.38878906 12.04445313 10.21507813 12.03515625 11.06640625 C12.02355469 11.70449219 12.01195312 12.34257813 12 13 C11.34 13 10.68 13 10 13 C10 10.69 10 8.38 10 6 C7.36 6 4.72 6 2 6 C2 8.64 2 11.28 2 14 C1.34 14 0.68 14 0 14 C0 9.38 0 4.76 0 0 Z " fill="#FED7A5" transform="translate(19,103)"/>
<path d="M0 0 C0.66 0 1.32 0 2 0 C2 1.32 2 2.64 2 4 C2.62648438 3.97679688 3.25296875 3.95359375 3.8984375 3.9296875 C4.71570313 3.91164063 5.53296875 3.89359375 6.375 3.875 C7.18710938 3.85179688 7.99921875 3.82859375 8.8359375 3.8046875 C11 4 11 4 13 6 C13.26991906 8.68839385 13.08737357 11.29141936 13 14 C12.01 14 11.02 14 10 14 C10 11.36 10 8.72 10 6 C7.36 6 4.72 6 2 6 C2 8.64 2 11.28 2 14 C1.34 14 0.68 14 0 14 C0 9.38 0 4.76 0 0 Z " fill="#FED39C" transform="translate(94,103)"/>
<path d="M0 0 C1.64574566 -0.02688151 3.29161413 -0.04634123 4.9375 -0.0625 C5.85402344 -0.07410156 6.77054688 -0.08570312 7.71484375 -0.09765625 C10 0 10 0 11 1 C11.14115161 3.67058851 11.04247107 6.32432238 11 9 C10.34 9 9.68 9 9 9 C9 8.01 9 7.02 9 6 C6.36 6 3.72 6 1 6 C1.33 6.66 1.66 7.32 2 8 C4.52733235 8.65555119 4.52733235 8.65555119 7 9 C7 9.33 7 9.66 7 10 C4.36 10 1.72 10 -1 10 C-1.042721 8.33388095 -1.04063832 6.66617115 -1 5 C0 4 0 4 2.06640625 3.90234375 C3.30197266 3.91974609 3.30197266 3.91974609 4.5625 3.9375 C5.38878906 3.94652344 6.21507812 3.95554687 7.06640625 3.96484375 C7.70449219 3.97644531 8.34257812 3.98804687 9 4 C9 3.34 9 2.68 9 2 C5.7 2 2.4 2 -1 2 C-0.67 1.34 -0.34 0.68 0 0 Z " fill="#FCD4A0" transform="translate(137,107)"/>
<path d="M0 0 C1.9375 0.6875 1.9375 0.6875 4 2 C4.75 4.625 4.75 4.625 5 7 C5.66 7 6.32 7 7 7 C7.66 4.69 8.32 2.38 9 0 C9.99 0 10.98 0 12 0 C11.42923471 3.87157659 10.32887202 6.54351942 8.1875 9.8125 C7.68605469 10.60269531 7.18460938 11.39289063 6.66796875 12.20703125 C6.11753906 12.79871094 5.56710938 13.39039062 5 14 C3.68 14 2.36 14 1 14 C1 13.34 1 12.68 1 12 C1.99 11.67 2.98 11.34 4 11 C3.67 9.02 3.34 7.04 3 5 C2.34 5 1.68 5 1 5 C0.67 3.35 0.34 1.7 0 0 Z " fill="#FDD098" transform="translate(33,107)"/>
<path d="M0 0 C3.42931954 3.7559214 4.56429083 8.23466745 6 13 C7.32 13 8.64 13 10 13 C10 13.66 10 14.32 10 15 C9.01 15.33 8.02 15.66 7 16 C7 18.31 7 20.62 7 23 C5.68 23 4.36 23 3 23 C3.33 21.35 3.66 19.7 4 18 C3.01 18 2.02 18 1 18 C1 17.01 1 16.02 1 15 C1.66 14.67 2.32 14.34 3 14 C2.65772428 11.02934491 2.65772428 11.02934491 2 8 C1.34 7.67 0.68 7.34 0 7 C0 4.69 0 2.38 0 0 Z " fill="#EE872E" transform="translate(103,78)"/>
<path d="M0 0 C3.36720387 1.39332574 4.9859524 2.9789286 7 6 C7.99 4.02 8.98 2.04 10 0 C10.66 0 11.32 0 12 0 C11.53775828 4.93057834 9.21828345 9.2872633 6 13 C3.83203125 13.734375 3.83203125 13.734375 2 14 C2 13.01 2 12.02 2 11 C2.99 11 3.98 11 5 11 C4.72285156 10.45730469 4.44570312 9.91460937 4.16015625 9.35546875 C3.79792969 8.64003906 3.43570313 7.92460938 3.0625 7.1875 C2.70285156 6.47980469 2.34320313 5.77210937 1.97265625 5.04296875 C1 3 1 3 0 0 Z " fill="#FCCF99" transform="translate(165,107)"/>
<path d="M0 0 C0.99 0 1.98 0 3 0 C3 0.66 3 1.32 3 2 C4.98 2 6.96 2 9 2 C9 2.33 9 2.66 9 3 C7.02 3 5.04 3 3 3 C3 5.31 3 7.62 3 10 C4.32 10 5.64 10 7 10 C7.33 9.01 7.66 8.02 8 7 C8.33 7 8.66 7 9 7 C9 8.65 9 10.3 9 12 C2.84765625 12.09765625 2.84765625 12.09765625 1 12 C0 11 0 11 -0.0625 7.4375 C-0.041875 6.303125 -0.02125 5.16875 0 4 C-0.66 4 -1.32 4 -2 4 C-1.34 2.68 -0.68 1.36 0 0 Z " fill="#FBD0A0" transform="translate(83,105)"/>
<path d="M0 0 C0.99 0.33 1.98 0.66 3 1 C4.17353189 4.52059568 4.20146402 7.306493 4 11 C3.34 11.66 2.68 12.32 2 13 C2 11.02 2 9.04 2 7 C1.01 7.33 0.02 7.66 -1 8 C-1.66 6.68 -2.32 5.36 -3 4 C-11.25 3.67 -19.5 3.34 -28 3 C-28 2.67 -28 2.34 -28 2 C-23.72922344 1.94205188 -19.45854764 1.90642126 -15.1875 1.875 C-13.97255859 1.85824219 -12.75761719 1.84148437 -11.50585938 1.82421875 C-10.34248047 1.81777344 -9.17910156 1.81132813 -7.98046875 1.8046875 C-6.37014771 1.78897705 -6.37014771 1.78897705 -4.72729492 1.77294922 C-2 2 -2 2 1 4 C0.67 2.68 0.34 1.36 0 0 Z " fill="#FBDBB7" transform="translate(38,73)"/>
<path d="M0 0 C0.66 0 1.32 0 2 0 C2.36256858 1.4562672 2.71479793 2.91511185 3.0625 4.375 C3.35833984 5.59316406 3.35833984 5.59316406 3.66015625 6.8359375 C4 9 4 9 3 11 C2.86642547 14.67329964 2.8328432 17.49852959 4 21 C3.01 20.67 2.02 20.34 1 20 C1 18.68 1 17.36 1 16 C0.34 16 -0.32 16 -1 16 C-1.02685095 13.52076199 -1.04676547 11.0418116 -1.0625 8.5625 C-1.07506836 7.50192383 -1.07506836 7.50192383 -1.08789062 6.41992188 C-1.09653588 4.61306441 -1.05220011 2.80612397 -1 1 C-0.67 0.67 -0.34 0.34 0 0 Z " fill="#FAFBF5" transform="translate(52,64)"/>
<path d="M0 0 C3.95819611 -0.08678303 7.91614934 -0.14031733 11.875 -0.1875 C13.00292969 -0.21263672 14.13085938 -0.23777344 15.29296875 -0.26367188 C16.36933594 -0.27333984 17.44570313 -0.28300781 18.5546875 -0.29296875 C20.04718018 -0.31653442 20.04718018 -0.31653442 21.56982422 -0.34057617 C22.37178223 -0.22818604 23.17374023 -0.1157959 24 0 C26 3 26 3 26 6 C25.01 5.67 24.02 5.34 23 5 C21.59335074 4.85507877 20.1818867 4.75371069 18.76953125 4.68359375 C17.96708984 4.64169922 17.16464844 4.59980469 16.33789062 4.55664062 C15.50451172 4.51732422 14.67113281 4.47800781 13.8125 4.4375 C12.96751953 4.39431641 12.12253906 4.35113281 11.25195312 4.30664062 C9.16815567 4.20068482 7.08409897 4.0998498 5 4 C5 3.67 5 3.34 5 3 C9.62 3 14.24 3 19 3 C19 2.34 19 1.68 19 1 C12.73 1 6.46 1 0 1 C0 0.67 0 0.34 0 0 Z " fill="#FCECCF" transform="translate(13,71)"/>
<path d="M0 0 C2.62690073 2.17241963 3.88879153 3.32677023 4.45410156 6.74902344 C4.4331543 7.77543945 4.41220703 8.80185547 4.390625 9.859375 C4.37773437 10.97441406 4.36484375 12.08945313 4.3515625 13.23828125 C4.31804687 14.39714844 4.28453125 15.55601563 4.25 16.75 C4.23195312 17.92433594 4.21390625 19.09867188 4.1953125 20.30859375 C4.1481912 23.2065534 4.08241305 26.10286418 4 29 C2.35 29 0.7 29 -1 29 C0.32 28.67 1.64 28.34 3 28 C2.67 20.74 2.34 13.48 2 6 C1.34 7.98 0.68 9.96 0 12 C-0.33 12 -0.66 12 -1 12 C-1 9.36 -1 6.72 -1 4 C-1.99 3.67 -2.98 3.34 -4 3 C-3.01 2.67 -2.02 2.34 -1 2 C-0.67 1.34 -0.34 0.68 0 0 Z " fill="#FEE9D0" transform="translate(172,60)"/>
<path d="M0 0 C1.134375 0.020625 2.26875 0.04125 3.4375 0.0625 C3.4375 0.3925 3.4375 0.7225 3.4375 1.0625 C2.2309375 1.248125 2.2309375 1.248125 1 1.4375 C0.154375 1.64375 -0.69125 1.85 -1.5625 2.0625 C-1.8925 2.7225 -2.2225 3.3825 -2.5625 4.0625 C0.4075 4.0625 3.3775 4.0625 6.4375 4.0625 C6.7675 3.4025 7.0975 2.7425 7.4375 2.0625 C7.4375 3.0525 7.4375 4.0425 7.4375 5.0625 C4.1375 5.0625 0.8375 5.0625 -2.5625 5.0625 C-2.5625 6.0525 -2.5625 7.0425 -2.5625 8.0625 C2.8825 7.5675 2.8825 7.5675 8.4375 7.0625 C8.4375 7.7225 8.4375 8.3825 8.4375 9.0625 C5.93610398 10.31319801 4.16357309 10.19552467 1.375 10.1875 C0.02728516 10.19136719 0.02728516 10.19136719 -1.34765625 10.1953125 C-3.5625 10.0625 -3.5625 10.0625 -4.5625 9.0625 C-4.6953125 7.25 -4.6953125 7.25 -4.6875 5.0625 C-4.69007812 4.340625 -4.69265625 3.61875 -4.6953125 2.875 C-4.44680298 -0.5164241 -3.51086809 0.06159418 0 0 Z " fill="#FEDAA6" transform="translate(113.5625,106.9375)"/>
<path d="M0 0 C0.33 0 0.66 0 1 0 C1 1.98 1 3.96 1 6 C-2.51827628 7.59245395 -5.22697352 8.24261382 -9.08203125 8.1953125 C-10.47905273 8.18564453 -10.47905273 8.18564453 -11.90429688 8.17578125 C-12.86400391 8.15902344 -13.82371094 8.14226562 -14.8125 8.125 C-15.79154297 8.11597656 -16.77058594 8.10695313 -17.77929688 8.09765625 C-20.18645061 8.07417182 -22.59309743 8.0413284 -25 8 C-24.67 7.34 -24.34 6.68 -24 6 C-17.07 6 -10.14 6 -3 6 C-3 5.01 -3 4.02 -3 3 C-2.01 3 -1.02 3 0 3 C0 2.01 0 1.02 0 0 Z " fill="#E89545" transform="translate(169,77)"/>
<path d="M0 0 C1.47115361 4.78124924 1.54208651 8.6318769 -0.3125 13.3125 C-2 16 -2 16 -5 17 C-3.7874262 13.27566618 -2.49140021 9.62197194 -1 6 C-1.66 6 -2.32 6 -3 6 C-3.28875 6.969375 -3.5775 7.93875 -3.875 8.9375 C-5 12 -5 12 -7 13 C-7.33 12.01 -7.66 11.02 -8 10 C-7.34 10 -6.68 10 -6 10 C-5.938125 9.46375 -5.87625 8.9275 -5.8125 8.375 C-4.61972618 4.88843038 -2.43802834 2.75059607 0 0 Z " fill="#E78333" transform="translate(178,101)"/>
<path d="M0 0 C-0.598125 0.28875 -1.19625 0.5775 -1.8125 0.875 C-4.19327792 2.04742026 -4.19327792 2.04742026 -7 4 C-7.40294547 6.59684844 -7.40294547 6.59684844 -7.25 9.5 C-7.23453125 10.4796875 -7.2190625 11.459375 -7.203125 12.46875 C-7.1594643 14.99293435 -7.1594643 14.99293435 -6 17 C-7.98 17.33 -9.96 17.66 -12 18 C-12 16.68 -12 15.36 -12 14 C-11.34 14 -10.68 14 -10 14 C-10.11859375 13.40832031 -10.2371875 12.81664063 -10.359375 12.20703125 C-11.03009048 8.09554534 -11.37198087 5.75946095 -9.5 1.9375 C-6.20522591 -0.61594992 -4.06533399 -0.3908975 0 0 Z " fill="#E28941" transform="translate(12,57)"/>
<path d="M0 0 C0.99 0 1.98 0 3 0 C3 3.3 3 6.6 3 10 C0.11584117 11.44207941 -2.41721528 11.09394887 -5.625 11.0625 C-6.81351563 11.05347656 -8.00203125 11.04445313 -9.2265625 11.03515625 C-10.14179687 11.02355469 -11.05703125 11.01195313 -12 11 C-12 10.67 -12 10.34 -12 10 C-7.545 9.505 -7.545 9.505 -3 9 C-2.67 7.68 -2.34 6.36 -2 5 C-1.34 5 -0.68 5 0 5 C0 3.35 0 1.7 0 0 Z " fill="#EFB073" transform="translate(61,107)"/>
<path d="M0 0 C0.99 0 1.98 0 3 0 C3.495 2.97 3.495 2.97 4 6 C3.28972656 5.67475342 2.57945312 5.34950684 1.84765625 5.0144043 C-1.16787853 3.94019759 -3.37518462 3.75570871 -6.5625 3.76953125 C-8.12871094 3.77243164 -8.12871094 3.77243164 -9.7265625 3.77539062 C-10.80679688 3.78763672 -11.88703125 3.79988281 -13 3.8125 C-14.62035156 3.8134668 -14.62035156 3.8134668 -16.2734375 3.81445312 C-21.00214343 3.84072371 -25.373035 3.94770136 -30 5 C-30 4.34 -30 3.68 -30 3 C-26.82544776 1.94181592 -24.39146636 1.81346756 -21.0546875 1.71875 C-19.89582031 1.68136719 -18.73695313 1.64398438 -17.54296875 1.60546875 C-15.08985019 1.53493179 -12.63672513 1.46462072 -10.18359375 1.39453125 C-9.02730469 1.35714844 -7.87101562 1.31976563 -6.6796875 1.28125 C-5.08229736 1.23581055 -5.08229736 1.23581055 -3.45263672 1.18945312 C-1.05490485 1.27175439 -1.05490485 1.27175439 0 0 Z " fill="#E78435" transform="translate(169,54)"/>
<path d="M0 0 C0.33 1.32 0.66 2.64 1 4 C0.34 4 -0.32 4 -1 4 C-0.814375 4.969375 -0.62875 5.93875 -0.4375 6.9375 C-0.293125 7.948125 -0.14875 8.95875 0 10 C-1.7338979 11.7338979 -4.13706236 11.41184841 -6.5 11.625 C-7.5003125 11.72039062 -8.500625 11.81578125 -9.53125 11.9140625 C-10.3459375 11.94242188 -11.160625 11.97078125 -12 12 C-13 11 -13 11 -13.0625 8.4375 C-13.041875 7.633125 -13.02125 6.82875 -13 6 C-12.67 6.99 -12.34 7.98 -12 9 C-8.66945626 9.13478487 -8.66945626 9.13478487 -5 8 C-2.90295564 5.54479707 -1.42723008 2.88734564 0 0 Z " fill="#E5934E" transform="translate(121,80)"/>
<path d="M0 0 C2.64 0 5.28 0 8 0 C8.38218767 1.65614657 8.71395102 3.32457024 9 5 C8 6 8 6 6.15234375 6.09765625 C4.1015625 6.06510417 2.05078125 6.03255208 0 6 C0 4.02 0 2.04 0 0 Z " fill="#DA8843" transform="translate(69,109)"/>
<path d="M0 0 C7.92 0.33 15.84 0.66 24 1 C24 1.66 24 2.32 24 3 C16.41 3 8.82 3 1 3 C0.67 2.01 0.34 1.02 0 0 Z " fill="#FFF9FC" transform="translate(8,85)"/>
<path d="M0 0 C2.64 0 5.28 0 8 0 C8 1.98 8 3.96 8 6 C5.36 6 2.72 6 0 6 C0 4.02 0 2.04 0 0 Z " fill="#D98D48" transform="translate(6,109)"/>
<path d="M0 0 C2.8951683 0.29950017 3.83823494 0.80934832 5.75 3.0625 C7.40740878 6.95741064 7.21413087 9.78875961 7 14 C6.01 14 5.02 14 4 14 C4 11.69 4 9.38 4 7 C3.01 6.67 2.02 6.34 1 6 C0.67 4.02 0.34 2.04 0 0 Z " fill="#FA8124" transform="translate(41,70)"/>
<path d="M0 0 C0.99 0.33 1.98 0.66 3 1 C3.125 3.875 3.125 3.875 3 7 C1 9 1 9 -1.1640625 9.1953125 C-2.38222656 9.16050781 -2.38222656 9.16050781 -3.625 9.125 C-4.44226563 9.10695313 -5.25953125 9.08890625 -6.1015625 9.0703125 C-6.72804687 9.04710938 -7.35453125 9.02390625 -8 9 C-8 9.99 -8 10.98 -8 12 C-8.66 12 -9.32 12 -10 12 C-10 10.02 -10 8.04 -10 6 C-9.34 5.67 -8.68 5.34 -8 5 C-8 5.66 -8 6.32 -8 7 C-5.36 6.67 -2.72 6.34 0 6 C0 4.02 0 2.04 0 0 Z " fill="#FDD8A2" transform="translate(161,108)"/>
<path d="M0 0 C2.64 0 5.28 0 8 0 C8.042721 1.66611905 8.04063832 3.33382885 8 5 C7 6 7 6 3.4375 6.0625 C2.303125 6.041875 1.16875 6.02125 0 6 C0 4.02 0 2.04 0 0 Z " fill="#DA8A4D" transform="translate(154,109)"/>
<path d="M0 0 C0.33 1.32 0.66 2.64 1 4 C0.34 4 -0.32 4 -1 4 C-1 3.34 -1 2.68 -1 2 C-2.98 2.33 -4.96 2.66 -7 3 C-7.33 5.31 -7.66 7.62 -8 10 C-8.66 10 -9.32 10 -10 10 C-10 6.7 -10 3.4 -10 0 C-5.99998285 -1.00000429 -3.94476647 -0.80688405 0 0 Z " fill="#FDCF94" transform="translate(134,107)"/>
<path d="M0 0 C0 0.66 0 1.32 0 2 C-0.99 2.495 -0.99 2.495 -2 3 C-2.65555119 5.52733235 -2.65555119 5.52733235 -3 8 C-5.97 7.505 -5.97 7.505 -9 7 C-8.67 5.02 -8.34 3.04 -8 1 C-2.25 0 -2.25 0 0 0 Z " fill="#FC821E" transform="translate(16,91)"/>
<path d="M0 0 C3 1 3 1 4.4375 2.5625 C6.13676051 4.45137102 6.13676051 4.45137102 10 4 C10 3.34 10 2.68 10 2 C10.66 2 11.32 2 12 2 C10.94124926 5.40312738 9.99097846 8.01353231 8 11 C7.34 11 6.68 11 6 11 C2 4.25 2 4.25 2 2 C1.34 2 0.68 2 0 2 C0 1.34 0 0.68 0 0 Z " fill="#E78C41" transform="translate(106,72)"/>
<path d="M0 0 C1.65 0 3.3 0 5 0 C5 3.63 5 7.26 5 11 C4.34 11 3.68 11 3 11 C2.67 11.66 2.34 12.32 2 13 C-1.3 12.67 -4.6 12.34 -8 12 C-8 11.67 -8 11.34 -8 11 C-3.545 10.505 -3.545 10.505 1 10 C1.0309375 8.081875 1.0309375 8.081875 1.0625 6.125 C1.07410156 5.40570313 1.08570313 4.68640625 1.09765625 3.9453125 C1.12649242 1.91814596 1.12649242 1.91814596 0 0 Z " fill="#E5985A" transform="translate(14,106)"/>
<path d="M0 0 C3.875 1.875 3.875 1.875 5 3 C5.33 2.01 5.66 1.02 6 0 C9.07692308 6.4 9.07692308 6.4 8.6875 9.4375 C8.460625 9.953125 8.23375 10.46875 8 11 C6 9.625 6 9.625 4 8 C4 7.34 4 6.68 4 6 C3.34 6 2.68 6 2 6 C1.34 4.02 0.68 2.04 0 0 Z " fill="#FCE4C1" transform="translate(96,64)"/>
<path d="M0 0 C0.763125 0.0825 1.52625 0.165 2.3125 0.25 C2.3125 1.24 2.3125 2.23 2.3125 3.25 C1.6525 3.25 0.9925 3.25 0.3125 3.25 C0.3125 4.24 0.3125 5.23 0.3125 6.25 C-0.3475 6.25 -1.0075 6.25 -1.6875 6.25 C-2.0175 7.24 -2.3475 8.23 -2.6875 9.25 C-3.6775 9.25 -4.6675 9.25 -5.6875 9.25 C-5.93285485 6.30574183 -5.86327792 4.59230436 -4.5 1.9375 C-2.6875 0.25 -2.6875 0.25 0 0 Z " fill="#FDE4C2" transform="translate(130.6875,57.75)"/>
<path d="M0 0 C0.66 0 1.32 0 2 0 C2 1.32 2 2.64 2 4 C7.61 4 13.22 4 19 4 C19.33 2.68 19.66 1.36 20 0 C20.5625 1.9375 20.5625 1.9375 21 4 C20 5 20 5 17.77514648 5.11352539 C16.81680908 5.10828857 15.85847168 5.10305176 14.87109375 5.09765625 C13.31938477 5.09282227 13.31938477 5.09282227 11.73632812 5.08789062 C10.64771484 5.07951172 9.55910156 5.07113281 8.4375 5.0625 C6.7987793 5.05573242 6.7987793 5.05573242 5.12695312 5.04882812 C2.41791505 5.03699826 -0.29101599 5.02051543 -3 5 C-3.33 4.34 -3.66 3.68 -4 3 C-2.68 3 -1.36 3 0 3 C0 2.01 0 1.02 0 0 Z " fill="#E68536" transform="translate(62,79)"/>
<path d="M0 0 C0 0.66 0 1.32 0 2 C-6.6 2 -13.2 2 -20 2 C-19.67 1.34 -19.34 0.68 -19 0 C-16.5300469 -0.34263523 -14.16977448 -0.55978709 -11.6875 -0.6875 C-11.01009766 -0.73455078 -10.33269531 -0.78160156 -9.63476562 -0.83007812 C-6.23924953 -1.0325478 -3.2416916 -1.10834186 0 0 Z " fill="#FBFCF9" transform="translate(164,59)"/>
<path d="M0 0 C0.33 0 0.66 0 1 0 C1.33 1.65 1.66 3.3 2 5 C2.33 4.34 2.66 3.68 3 3 C3.66 3 4.32 3 5 3 C5.66 4.98 6.32 6.96 7 9 C6.67 9.33 6.34 9.66 6 10 C3.30917128 9.82364548 0.67148554 9.38164079 -2 9 C-2 8.34 -2 7.68 -2 7 C-1.34 7 -0.68 7 0 7 C0 4.69 0 2.38 0 0 Z " fill="#F09950" transform="translate(31,109)"/>
<path d="M0 0 C5.28 0.66 10.56 1.32 16 2 C15.34 2.66 14.68 3.32 14 4 C13.59952556 6.32275177 13.2602896 8.65739357 13 11 C12.67 11 12.34 11 12 11 C12 9.02 12 7.04 12 5 C6.06 4.01 6.06 4.01 0 3 C0 2.01 0 1.02 0 0 Z " fill="#E29555" transform="translate(96,104)"/>
<path d="M0 0 C0 0.33 0 0.66 0 1 C-0.969375 1.309375 -1.93875 1.61875 -2.9375 1.9375 C-5.84065792 2.69523342 -5.84065792 2.69523342 -7 4 C-7.25005386 6.95817107 -7.25005386 6.95817107 -7 10 C-5.04783565 11.95216435 -3.46800047 12.84826645 -1 14 C-3.79491785 14.23290982 -5.69914404 14.12196863 -8.3125 13.0625 C-11.01923334 9.75427036 -10.31024137 6.11069817 -10 2 C-6.48375245 0.05841983 -4.0284349 -0.18311068 0 0 Z " fill="#D78744" transform="translate(74,105)"/>
<path d="M0 0 C1.98 0.495 1.98 0.495 4 1 C4 3.97 4 6.94 4 10 C2.68 10 1.36 10 0 10 C-1.2380014 6.42355152 -0.74926071 3.66305234 0 0 Z " fill="#FDF6DE" transform="translate(171,78)"/>
<path d="M0 0 C0.66 0 1.32 0 2 0 C1.67 0.99 1.34 1.98 1 3 C0.34 3 -0.32 3 -1 3 C-1 5.97 -1 8.94 -1 12 C-0.01 12 0.98 12 2 12 C2.33 13.32 2.66 14.64 3 16 C-0.875 14.125 -0.875 14.125 -2 13 C-2.12487758 11.19072719 -2.17570846 9.37603893 -2.1875 7.5625 C-2.20167969 6.57378906 -2.21585937 5.58507812 -2.23046875 4.56640625 C-2 2 -2 2 0 0 Z M2 4 C2.99 4.495 2.99 4.495 4 5 C3.979375 5.78375 3.95875 6.5675 3.9375 7.375 C3.81315937 9.98114961 3.81315937 9.98114961 5 12 C4.01 12 3.02 12 2 12 C2 9.36 2 6.72 2 4 Z " fill="#FDE1C0" transform="translate(6,59)"/>
<path d="M0 0 C0.33 0.66 0.66 1.32 1 2 C1.99 2.33 2.98 2.66 4 3 C3.01 5.31 2.02 7.62 1 10 C0.67 10 0.34 10 0 10 C0 8.02 0 6.04 0 4 C-0.99 4.495 -0.99 4.495 -2 5 C-2.31241371 7.54941373 -2.51303421 10.00361513 -2.625 12.5625 C-2.66367187 13.27341797 -2.70234375 13.98433594 -2.7421875 14.71679688 C-2.83671783 16.47742425 -2.91945817 18.23867728 -3 20 C-3.33 20 -3.66 20 -4 20 C-4.1081866 17.41554227 -4.18737237 14.83562648 -4.25 12.25 C-4.28351562 11.52039063 -4.31703125 10.79078125 -4.3515625 10.0390625 C-4.41902625 6.32855625 -4.34327652 4.42843039 -1.984375 1.484375 C-1.32953125 0.99453125 -0.6746875 0.5046875 0 0 Z " fill="#FDEFD4" transform="translate(54,60)"/>
<path d="M0 0 C-0.33 0.99 -0.66 1.98 -1 3 C-7.75 3.125 -7.75 3.125 -10 2 C-9.85831863 3.43791516 -9.71148957 4.8753237 -9.5625 6.3125 C-9.48128906 7.11300781 -9.40007813 7.91351563 -9.31640625 8.73828125 C-9.04734307 11.16087179 -9.04734307 11.16087179 -8 14 C-8.99 13.67 -9.98 13.34 -11 13 C-11 9.04 -11 5.08 -11 1 C-7.1273408 0.0318352 -3.96388638 -0.07622858 0 0 Z " fill="#FCBF7F" transform="translate(14,106)"/>
<path d="M0 0 C0.66 0 1.32 0 2 0 C2 0.66 2 1.32 2 2 C4.31 1.34 6.62 0.68 9 0 C8.34 1.98 7.68 3.96 7 6 C4.69 6 2.38 6 0 6 C0 4.02 0 2.04 0 0 Z " fill="#FB8024" transform="translate(42,56)"/>
<path d="M0 0 C0.66 0.66 1.32 1.32 2 2 C3.98821313 2.39764263 5.98944339 2.73775349 8 3 C7.67 3.66 7.34 4.32 7 5 C-1.58 5 -10.16 5 -19 5 C-19 4.67 -19 4.34 -19 4 C-12.73 4 -6.46 4 0 4 C0 2.68 0 1.36 0 0 Z " fill="#E97E26" transform="translate(33,65)"/>
<path d="M0 0 C0.99 0 1.98 0 3 0 C3.5745952 3.73486879 4 7.21293268 4 11 C2.35 11 0.7 11 -1 11 C-1 10.01 -1 9.02 -1 8 C-0.34 8 0.32 8 1 8 C0.67 5.36 0.34 2.72 0 0 Z " fill="#F8F9F4" transform="translate(83,62)"/>
<path d="M0 0 C0.33 0 0.66 0 1 0 C1 2.97 1 5.94 1 9 C-2.3 8.67 -5.6 8.34 -9 8 C-9.33 7.01 -9.66 6.02 -10 5 C-7.36 5 -4.72 5 -2 5 C-2 5.99 -2 6.98 -2 8 C-1.34 8 -0.68 8 0 8 C0 5.36 0 2.72 0 0 Z " fill="#E8A46A" transform="translate(148,108)"/>
<path d="M0 0 C1.32 0.33 2.64 0.66 4 1 C3.01 1 2.02 1 1 1 C0.79375 2.093125 0.5875 3.18625 0.375 4.3125 C-1 8 -1 8 -4.125 9.9375 C-5.07375 10.288125 -6.0225 10.63875 -7 11 C-7 9.02 -7 7.04 -7 5 C-5.02 5 -3.04 5 -1 5 C-0.67 3.35 -0.34 1.7 0 0 Z " fill="#E9934D" transform="translate(145,62)"/>
<path d="M0 0 C1.32 0 2.64 0 4 0 C4 9.24 4 18.48 4 28 C3.67 28 3.34 28 3 28 C2.98018066 27.29391602 2.96036133 26.58783203 2.93994141 25.86035156 C2.84459585 22.65653006 2.73495487 19.45335199 2.625 16.25 C2.5940625 15.13882813 2.563125 14.02765625 2.53125 12.8828125 C2.49257812 11.81289062 2.45390625 10.74296875 2.4140625 9.640625 C2.3826416 8.65610352 2.3512207 7.67158203 2.31884766 6.65722656 C1.99897742 3.99147799 1.35631379 2.29383595 0 0 Z " fill="#EE9B59" transform="translate(173,60)"/>
<path d="M0 0 C2.31 0 4.62 0 7 0 C7 3 7 3 5.75 4.6875 C4 6 4 6 0 6 C0 4.02 0 2.04 0 0 Z " fill="#DE873B" transform="translate(86,109)"/>
<path d="M0 0 C0.78375 0.04125 1.5675 0.0825 2.375 0.125 C1.385 0.785 0.395 1.445 -0.625 2.125 C-1.125 5.125 -1.125 5.125 -0.625 8.125 C0.365 8.785 1.355 9.445 2.375 10.125 C0 10.25 0 10.25 -2.625 10.125 C-4.625 8.125 -4.625 8.125 -4.875 5.125 C-4.55416156 1.2749387 -3.94115238 0.18767392 0 0 Z " fill="#FED39C" transform="translate(70.625,106.875)"/>
<path d="M0 0 C0.98613281 0.00322266 1.97226562 0.00644531 2.98828125 0.00976562 C4.02082031 0.01814453 5.05335937 0.02652344 6.1171875 0.03515625 C7.67759766 0.04192383 7.67759766 0.04192383 9.26953125 0.04882812 C11.84380712 0.06063673 14.41796896 0.0771055 16.9921875 0.09765625 C16.9921875 0.42765625 16.9921875 0.75765625 16.9921875 1.09765625 C15.75082031 1.14664063 14.50945312 1.195625 13.23046875 1.24609375 C11.58852056 1.32115424 9.94659453 1.39670064 8.3046875 1.47265625 C7.48806641 1.50359375 6.67144531 1.53453125 5.83007812 1.56640625 C1.48671527 1.77741983 -2.05181111 2.11587353 -6.0078125 4.09765625 C-6.9978125 4.59265625 -6.9978125 4.59265625 -8.0078125 5.09765625 C-7.6328125 3.16015625 -7.6328125 3.16015625 -7.0078125 1.09765625 C-4.50284246 -0.15482877 -2.79927976 -0.01608781 0 0 Z " fill="#E48638" transform="translate(59.0078125,55.90234375)"/>
<path d="M0 0 C1.47906892 -0.02689216 2.95827483 -0.04634621 4.4375 -0.0625 C5.26121094 -0.07410156 6.08492187 -0.08570312 6.93359375 -0.09765625 C9 0 9 0 10 1 C10.07179964 2.51928038 10.08392007 4.04167482 10.0625 5.5625 C10.05347656 6.38878906 10.04445313 7.21507813 10.03515625 8.06640625 C10.02355469 8.70449219 10.01195312 9.34257813 10 10 C9.34 10 8.68 10 8 10 C8 7.69 8 5.38 8 3 C7.236875 3.061875 6.47375 3.12375 5.6875 3.1875 C2.51219194 2.96596688 2.04264341 2.28224968 0 0 Z " fill="#FBC694" transform="translate(21,106)"/>
<path d="M0 0 C1.65 0.33 3.3 0.66 5 1 C5.33 1.99 5.66 2.98 6 4 C4.02 4 2.04 4 0 4 C-0.33 4.99 -0.66 5.98 -1 7 C-1.99 6.67 -2.98 6.34 -4 6 C-3.67 4.68 -3.34 3.36 -3 2 C-2.01 2 -1.02 2 0 2 C0 1.34 0 0.68 0 0 Z " fill="#FB811E" transform="translate(113,91)"/>
<path d="M0 0 C1.485 0.99 1.485 0.99 3 2 C3 2.66 3 3.32 3 4 C4.98 3.34 6.96 2.68 9 2 C8.67 3.65 8.34 5.3 8 7 C6.02 7 4.04 7 2 7 C0.5393715 4.35261084 0 3.10551666 0 0 Z " fill="#FDF8EB" transform="translate(109,81)"/>
<path d="M0 0 C0.33 0 0.66 0 1 0 C0.67 4.29 0.34 8.58 0 13 C-0.99 12.67 -1.98 12.34 -3 12 C-3 9.69 -3 7.38 -3 5 C-2.34 5 -1.68 5 -1 5 C-0.67 3.35 -0.34 1.7 0 0 Z " fill="#FD7F1E" transform="translate(135,71)"/>
<path d="M0 0 C0.66 0 1.32 0 2 0 C2 2.31 2 4.62 2 7 C-0.64 6.67 -3.28 6.34 -6 6 C-6.33 5.01 -6.66 4.02 -7 3 C-7.99 3 -8.98 3 -10 3 C-10 2.34 -10 1.68 -10 1 C-7.525 1.495 -7.525 1.495 -5 2 C-5 2.99 -5 3.98 -5 5 C-3.35 5 -1.7 5 0 5 C0 3.35 0 1.7 0 0 Z " fill="#E5904A" transform="translate(41,62)"/>
<path d="M0 0 C5.28 0 10.56 0 16 0 C15 2 15 2 13.0625 2.6875 C8.63968751 3.1388074 4.39657032 2.55490693 0 2 C0 1.34 0 0.68 0 0 Z " fill="#F57E28" transform="translate(61,63)"/>
<path d="M0 0 C0 0.66 0 1.32 0 2 C1.32 2.33 2.64 2.66 4 3 C-2.06820868 4.08360869 -6.10106757 3.79074734 -12 2 C-12 1.67 -12 1.34 -12 1 C-7.95858806 0.36605303 -4.0934693 -0.12404452 0 0 Z " fill="#EA8A3B" transform="translate(124,104)"/>
<path d="M0 0 C2.31 0 4.62 0 7 0 C7 0.66 7 1.32 7 2 C6.01 2.495 6.01 2.495 5 3 C5 3.99 5 4.98 5 6 C3.35 5.67 1.7 5.34 0 5 C0 3.35 0 1.7 0 0 Z " fill="#F8811E" transform="translate(57,76)"/>
<path d="M0 0 C2.64 0 5.28 0 8 0 C8 2.64 8 5.28 8 8 C7.01 7.34 6.02 6.68 5 6 C4.8125 3.375 4.8125 3.375 5 1 C3.68 1 2.36 1 1 1 C1 3.31 1 5.62 1 8 C0.67 8 0.34 8 0 8 C0 5.36 0 2.72 0 0 Z " fill="#E48B3F" transform="translate(96,109)"/>
<path d="M0 0 C0.99 0 1.98 0 3 0 C3 1.65 3 3.3 3 5 C-2.94 5 -8.88 5 -15 5 C-15 4.67 -15 4.34 -15 4 C-10.05 4 -5.1 4 0 4 C0 2.68 0 1.36 0 0 Z " fill="#FB801A" transform="translate(31,78)"/>
<path d="M0 0 C0 1.32 0 2.64 0 4 C-2.31 4.66 -4.62 5.32 -7 6 C-7 4.68 -7 3.36 -7 2 C-4 0 -4 0 0 0 Z " fill="#F9801E" transform="translate(172,122)"/>
<path d="M0 0 C0.66 0.33 1.32 0.66 2 1 C2 2.32 2 3.64 2 5 C2.66 5 3.32 5 4 5 C4 5.66 4 6.32 4 7 C3.01 7 2.02 7 1 7 C0.67 8.32 0.34 9.64 0 11 C0 10.34 0 9.68 0 9 C-0.66 9 -1.32 9 -2 9 C-2.66 7.02 -3.32 5.04 -4 3 C-2.02 3.99 -2.02 3.99 0 5 C0 3.35 0 1.7 0 0 Z " fill="#F9D6B5" transform="translate(104,69)"/>
<path d="M0 0 C0.33 1.98 0.66 3.96 1 6 C0.34 5.01 -0.32 4.02 -1 3 C-4.06556598 2.26656572 -4.06556598 2.26656572 -7 2 C-7.33 2.66 -7.66 3.32 -8 4 C-8 2.68 -8 1.36 -8 0 C-4.71023192 -1.09658936 -3.28696233 -0.79953138 0 0 Z " fill="#E78F4A" transform="translate(100,56)"/>
<path d="M0 0 C2.31 0 4.62 0 7 0 C7 1.32 7 2.64 7 4 C4.69 4 2.38 4 0 4 C0 2.68 0 1.36 0 0 Z " fill="#EF8534" transform="translate(121,122)"/>
<path d="M0 0 C1.2065625 0.0309375 1.2065625 0.0309375 2.4375 0.0625 C2.4375 1.0525 2.4375 2.0425 2.4375 3.0625 C1.4475 3.3925 0.4575 3.7225 -0.5625 4.0625 C-1.29573796 6.07758358 -1.29573796 6.07758358 -1.5625 8.0625 C-2.2225 8.0625 -2.8825 8.0625 -3.5625 8.0625 C-3.60491723 5.72955225 -3.60342937 3.39547433 -3.5625 1.0625 C-2.5625 0.0625 -2.5625 0.0625 0 0 Z " fill="#DE8A46" transform="translate(129.5625,108.9375)"/>
<path d="M0 0 C0.66 0 1.32 0 2 0 C2.33 3.3 2.66 6.6 3 10 C0.69 9.67 -1.62 9.34 -4 9 C-3.01 8.34 -2.02 7.68 -1 7 C-0.26393501 3.43230448 -0.26393501 3.43230448 0 0 Z " fill="#E8822F" transform="translate(81,109)"/>
<path d="M0 0 C1.65 0 3.3 0 5 0 C4.67 1.65 4.34 3.3 4 5 C2.68 5.33 1.36 5.66 0 6 C0 4.02 0 2.04 0 0 Z " fill="#FDF2D7" transform="translate(84,80)"/>
<path d="M0 0 C2.31 0 4.62 0 7 0 C6.01 0.495 6.01 0.495 5 1 C5 2.65 5 4.3 5 6 C3.68 6 2.36 6 1 6 C0.67 4.02 0.34 2.04 0 0 Z " fill="#F57E20" transform="translate(9,77)"/>
<path d="M0 0 C0.66 0 1.32 0 2 0 C1.67 0.99 1.34 1.98 1 3 C0.63508688 4.3930625 0.28137021 5.78909448 -0.0625 7.1875 C-0.371875 8.445625 -0.68125 9.70375 -1 11 C-1.99 10.67 -2.98 10.34 -4 10 C-4 8.68 -4 7.36 -4 6 C-3.34 6 -2.68 6 -2 6 C-1.34 4.02 -0.68 2.04 0 0 Z " fill="#F9F9EB" transform="translate(122,70)"/>
<path d="M0 0 C3 3.75 3 3.75 3 6 C3.66 6 4.32 6 5 6 C5.66 8.31 6.32 10.62 7 13 C6.01 12.67 5.02 12.34 4 12 C2.8125 8.9375 2.8125 8.9375 2 6 C1.34 6 0.68 6 0 6 C0 4.02 0 2.04 0 0 Z " fill="#EB853F" transform="translate(95,64)"/>
<path d="M0 0 C0.99 0.33 1.98 0.66 3 1 C3 1.99 3 2.98 3 4 C3.99 4.33 4.98 4.66 6 5 C6 5.99 6 6.98 6 8 C7.65 8 9.3 8 11 8 C11 8.33 11 8.66 11 9 C8.69 9 6.38 9 4 9 C4 8.01 4 7.02 4 6 C3.34 6 2.68 6 2 6 C1.34 4.02 0.68 2.04 0 0 Z " fill="#FBDEB9" transform="translate(105,80)"/>
<path d="M0 0 C2.31 0.66 4.62 1.32 7 2 C6.01 2.495 6.01 2.495 5 3 C5 4.65 5 6.3 5 8 C2.21611025 6.29374499 1.14615794 5.52373261 0.25 2.3125 C0.1675 1.549375 0.085 0.78625 0 0 Z " fill="#EA924D" transform="translate(101,62)"/>
<path d="M0 0 C0 0.99 0 1.98 0 3 C-0.66 2.67 -1.32 2.34 -2 2 C-1.505 2.598125 -1.01 3.19625 -0.5 3.8125 C1 6 1 6 1 9 C-0.32 9 -1.64 9 -3 9 C-4.125 3.25 -4.125 3.25 -3 1 C-2.01 0.67 -1.02 0.34 0 0 Z " fill="#E0985A" transform="translate(167,105)"/>
<path d="M0 0 C0.99 0.66 1.98 1.32 3 2 C2.67 2.99 2.34 3.98 2 5 C2 4.34 2 3.68 2 3 C1.34 3 0.68 3 0 3 C-0.28875 3.969375 -0.5775 4.93875 -0.875 5.9375 C-2 9 -2 9 -4 10 C-4.33 9.01 -4.66 8.02 -5 7 C-4.34 7 -3.68 7 -3 7 C-2.87625 6.401875 -2.7525 5.80375 -2.625 5.1875 C-2 3 -2 3 0 0 Z " fill="#E08D47" transform="translate(175,104)"/>
<path d="M0 0 C2.00130916 2.54712074 3.85727656 4.9527375 5 8 C4.625 10.25 4.625 10.25 4 12 C3.71125 11.360625 3.4225 10.72125 3.125 10.0625 C2.17176549 7.84793921 2.17176549 7.84793921 0 7 C0 4.69 0 2.38 0 0 Z " fill="#E2853A" transform="translate(103,78)"/>
<path d="M0 0 C3.3 0 6.6 0 10 0 C10 0.66 10 1.32 10 2 C5.545 2.495 5.545 2.495 1 3 C0.67 2.01 0.34 1.02 0 0 Z " fill="#E29046" transform="translate(153,117)"/>
<path d="M0 0 C0.66 1.32 1.32 2.64 2 4 C1.01 4.66 0.02 5.32 -1 6 C-1.72382467 8.05925139 -1.72382467 8.05925139 -2 10 C-2.99 10 -3.98 10 -5 10 C-3.66511872 6.40608886 -2.03977277 3.24509304 0 0 Z " fill="#E28741" transform="translate(45,109)"/>
<path d="M0 0 C2.31 0 4.62 0 7 0 C7.33 0.99 7.66 1.98 8 3 C5.36 3 2.72 3 0 3 C0 2.01 0 1.02 0 0 Z " fill="#E0995C" transform="translate(49,108)"/>
<path d="M0 0 C0.99 0 1.98 0 3 0 C2.46930939 3.82097239 1.50298434 6.06171403 -1 9 C-2.0326802 6.21176345 -2.04509293 5.1322726 -1.0625 2.25 C-0.711875 1.5075 -0.36125 0.765 0 0 Z " fill="#FDC988" transform="translate(42,107)"/>
<path d="M0 0 C3.3 0 6.6 0 10 0 C10 1.65 10 3.3 10 5 C9.34 5 8.68 5 8 5 C8 4.01 8 3.02 8 2 C5.36 2 2.72 2 0 2 C0 1.34 0 0.68 0 0 Z " fill="#F0974D" transform="translate(54,102)"/>
<path d="M0 0 C2.97 0.495 2.97 0.495 6 1 C5.67 1.99 5.34 2.98 5 4 C3.35 4 1.7 4 0 4 C0 2.68 0 1.36 0 0 Z " fill="#FD821C" transform="translate(3,101)"/>
<path d="M0 0 C1.67542976 0.28604898 3.34385343 0.61781233 5 1 C5.33 2.65 5.66 4.3 6 6 C3.69 6 1.38 6 -1 6 C0.32 5.34 1.64 4.68 3 4 C3 3.34 3 2.68 3 2 C1.68 1.67 0.36 1.34 -1 1 C-0.67 0.67 -0.34 0.34 0 0 Z " fill="#E88335" transform="translate(77,63)"/>
<path d="M0 0 C0.66 0.33 1.32 0.66 2 1 C-0.475 5.455 -0.475 5.455 -3 10 C-3.33 10 -3.66 10 -4 10 C-4 7.69 -4 5.38 -4 3 C-3.01 3 -2.02 3 -1 3 C-0.67 2.01 -0.34 1.02 0 0 Z " fill="#E8853D" transform="translate(122,64)"/>
<path d="M0 0 C3.3 0.33 6.6 0.66 10 1 C10 1.66 10 2.32 10 3 C6.37 3 2.74 3 -1 3 C-0.67 2.01 -0.34 1.02 0 0 Z " fill="#FE8021" transform="translate(6,53)"/>
<path d="M0 0 C0.33 0.99 0.66 1.98 1 3 C0 4 0 4 -1.84765625 4.09765625 C-3.8984375 4.06510417 -5.94921875 4.03255208 -8 4 C-7.67 3.01 -7.34 2.02 -7 1 C-3.535 0.505 -3.535 0.505 0 0 Z " fill="#F7BE84" transform="translate(77,114)"/>
<path d="M0 0 C1.98 0 3.96 0 6 0 C6 1.32 6 2.64 6 4 C5.34 4 4.68 4 4 4 C4 3.34 4 2.68 4 2 C3.34 2 2.68 2 2 2 C2 2.99 2 3.98 2 5 C1.34 5 0.68 5 0 5 C0 3.35 0 1.7 0 0 Z " fill="#EF802C" transform="translate(154,110)"/>
<path d="M0 0 C1.65 0 3.3 0 5 0 C5 1.65 5 3.3 5 5 C3.35 4.67 1.7 4.34 0 4 C0 2.68 0 1.36 0 0 Z " fill="#EC832B" transform="translate(8,109)"/>
<path d="M0 0 C1.32 0 2.64 0 4 0 C4.33 1.32 4.66 2.64 5 4 C2.69 4 0.38 4 -2 4 C-2 3.34 -2 2.68 -2 2 C-1.34 2 -0.68 2 0 2 C0 1.34 0 0.68 0 0 Z " fill="#E58530" transform="translate(88,102)"/>
<path d="M0 0 C0.33 0 0.66 0 1 0 C1.06058594 0.69867188 1.12117187 1.39734375 1.18359375 2.1171875 C1.26738281 3.02726562 1.35117188 3.93734375 1.4375 4.875 C1.51871094 5.77992187 1.59992187 6.68484375 1.68359375 7.6171875 C1.86989285 10.01110861 1.86989285 10.01110861 3 12 C1.02 12.33 -0.96 12.66 -3 13 C-3 12.01 -3 11.02 -3 10 C-2.01 10 -1.02 10 0 10 C0 6.7 0 3.4 0 0 Z " fill="#E29C62" transform="translate(3,62)"/>
<path d="M0 0 C1.32 0 2.64 0 4 0 C4.33 1.32 4.66 2.64 5 4 C2.69 3.67 0.38 3.34 -2 3 C-1.34 2.01 -0.68 1.02 0 0 Z " fill="#FC7F21" transform="translate(158,120)"/>
<path d="M0 0 C1.65 0.33 3.3 0.66 5 1 C5 1.99 5 2.98 5 4 C3.35 4 1.7 4 0 4 C0 2.68 0 1.36 0 0 Z " fill="#FA841F" transform="translate(71,110)"/>
<path d="M0 0 C0.99 0 1.98 0 3 0 C3 2.31 3 4.62 3 7 C2.01 7 1.02 7 0 7 C0 4.69 0 2.38 0 0 Z " fill="#FD8120" transform="translate(40,97)"/>
<path d="M0 0 C0.99 0.495 0.99 0.495 2 1 C2 1.66 2 2.32 2 3 C1.34 3 0.68 3 0 3 C0 2.01 0 1.02 0 0 Z M-4 2 C-1.525 2.99 -1.525 2.99 1 4 C1 4.66 1 5.32 1 6 C1.99 6.33 2.98 6.66 4 7 C1.125 6.75 1.125 6.75 -2 6 C-3.375 3.9375 -3.375 3.9375 -4 2 Z " fill="#FDE3C2" transform="translate(8,82)"/>
<path d="M0 0 C0.99 0 1.98 0 3 0 C3.33 1.98 3.66 3.96 4 6 C3.01 6 2.02 6 1 6 C0 5 0 5 -0.0625 2.4375 C-0.041875 1.633125 -0.02125 0.82875 0 0 Z " fill="#F9FAEE" transform="translate(101,68)"/>
<path d="M0 0 C0.66 0.99 1.32 1.98 2 3 C1.125 6.1875 1.125 6.1875 0 9 C-0.99 9 -1.98 9 -3 9 C-2.5020163 5.26512223 -2.12508244 3.18762365 0 0 Z " fill="#FB8416" transform="translate(121,58)"/>
<path d="M0 0 C1.65 0 3.3 0 5 0 C5.66 1.32 6.32 2.64 7 4 C6.01 4.495 6.01 4.495 5 5 C5 4.34 5 3.68 5 3 C3.35 3 1.7 3 0 3 C0 2.01 0 1.02 0 0 Z " fill="#E89146" transform="translate(128,55)"/>
<path d="M0 0 C0.99 0 1.98 0 3 0 C3.33 1.98 3.66 3.96 4 6 C3.01 6 2.02 6 1 6 C0.67 4.02 0.34 2.04 0 0 Z " fill="#EF8439" transform="translate(26,96)"/>
<path d="M0 0 C1.32 0 2.64 0 4 0 C4 1.65 4 3.3 4 5 C2.68 5 1.36 5 0 5 C0 3.35 0 1.7 0 0 Z " fill="#FE801A" transform="translate(130,92)"/>
<path d="M0 0 C0.99 0 1.98 0 3 0 C3 1.32 3 2.64 3 4 C2.34 4 1.68 4 1 4 C1 5.32 1 6.64 1 8 C0.34 8 -0.32 8 -1 8 C-0.67 5.36 -0.34 2.72 0 0 Z " fill="#F2FEFD" transform="translate(139,74)"/>
<path d="M0 0 C0.33 0 0.66 0 1 0 C1 1.65 1 3.3 1 5 C-1.64 5 -4.28 5 -7 5 C-6.34 4.34 -5.68 3.68 -5 3 C-3.68 3 -2.36 3 -1 3 C-0.67 2.01 -0.34 1.02 0 0 Z " fill="#FECB89" transform="translate(91,112)"/>
<path d="M0 0 C1.32 0.33 2.64 0.66 4 1 C3.67 2.65 3.34 4.3 3 6 C2.01 6 1.02 6 0 6 C0 4.02 0 2.04 0 0 Z " fill="#FE8017" transform="translate(47,94)"/>
<path d="M0 0 C0.66 0 1.32 0 2 0 C2.185625 1.7015625 2.185625 1.7015625 2.375 3.4375 C2.684375 5.2009375 2.684375 5.2009375 3 7 C3.66 7.33 4.32 7.66 5 8 C1.125 7.125 1.125 7.125 0 6 C-0.04080783 4.00041636 -0.04254356 1.99954746 0 0 Z " fill="#FDE2C3" transform="translate(51,80)"/>
<path d="M0 0 C0.33 0.99 0.66 1.98 1 3 C0.01 4.485 0.01 4.485 -1 6 C-1.99 6 -2.98 6 -4 6 C-3.6875 4.125 -3.6875 4.125 -3 2 C-2.01 1.34 -1.02 0.68 0 0 Z " fill="#FDFAEF" transform="translate(129,61)"/>
<path d="M0 0 C0.99 0 1.98 0 3 0 C3.33 1.98 3.66 3.96 4 6 C1.525 5.01 1.525 5.01 -1 4 C-0.67 2.68 -0.34 1.36 0 0 Z " fill="#EA8D49" transform="translate(169,54)"/>
<path d="M0 0 C3 0 3 0 4.6875 1.375 C6 3 6 3 6 5 C4.68 5 3.36 5 2 5 C2 4.34 2 3.68 2 3 C1.34 3 0.68 3 0 3 C0 2.01 0 1.02 0 0 Z " fill="#FD811B" transform="translate(35,123)"/>
<path d="M0 0 C0.33 0 0.66 0 1 0 C1.309375 1.11375 1.61875 2.2275 1.9375 3.375 C2.82326483 6.7945155 2.82326483 6.7945155 4 9 C1.69 9 -0.62 9 -3 9 C-2.01 8.67 -1.02 8.34 0 8 C0 5.36 0 2.72 0 0 Z " fill="#D98746" transform="translate(107,109)"/>
<path d="M0 0 C1.32 0.33 2.64 0.66 4 1 C4 2.65 4 4.3 4 6 C3.34 6 2.68 6 2 6 C0 3 0 3 0 0 Z " fill="#F88120" transform="translate(14,101)"/>
<path d="M0 0 C0.99 0 1.98 0 3 0 C3 1.65 3 3.3 3 5 C1.68 4.67 0.36 4.34 -1 4 C-0.67 2.68 -0.34 1.36 0 0 Z " fill="#ED882A" transform="translate(99,96)"/>
<path d="M0 0 C1.65 0 3.3 0 5 0 C5 1.32 5 2.64 5 4 C3.68 4 2.36 4 1 4 C0.67 2.68 0.34 1.36 0 0 Z " fill="#F9FAF2" transform="translate(170,84)"/>
<path d="M0 0 C0.33 0 0.66 0 1 0 C1 1.98 1 3.96 1 6 C-0.32 6.33 -1.64 6.66 -3 7 C-3 5.68 -3 4.36 -3 3 C-2.01 3 -1.02 3 0 3 C0 2.01 0 1.02 0 0 Z " fill="#E58B40" transform="translate(169,77)"/>
<path d="M0 0 C0.33 0.66 0.66 1.32 1 2 C0.67 2.66 0.34 3.32 0 4 C1.32 4 2.64 4 4 4 C4 4.99 4 5.98 4 7 C2.35 7 0.7 7 -1 7 C-1.04254356 5.00045254 -1.04080783 2.99958364 -1 1 C-0.67 0.67 -0.34 0.34 0 0 Z " fill="#FEE1B9" transform="translate(140,60)"/>
<path d="M0 0 C0.66 0 1.32 0 2 0 C2 0.66 2 1.32 2 2 C2.99 2.33 3.98 2.66 5 3 C5 3.66 5 4.32 5 5 C3.35 5 1.7 5 0 5 C0 3.35 0 1.7 0 0 Z " fill="#FD7F14" transform="translate(42,56)"/>
<path d="M0 0 C1.98 0 3.96 0 6 0 C6.33 1.65 6.66 3.3 7 5 C4.69 4.01 2.38 3.02 0 2 C0 1.34 0 0.68 0 0 Z " fill="#E99B55" transform="translate(80,57)"/>
<path d="M0 0 C0.66 0 1.32 0 2 0 C2.66 1.98 3.32 3.96 4 6 C3.01 6.33 2.02 6.66 1 7 C0.67 4.69 0.34 2.38 0 0 Z " fill="#E0904E" transform="translate(34,112)"/>
<path d="M0 0 C0.33 0 0.66 0 1 0 C1 1.98 1 3.96 1 6 C-0.98 6.99 -0.98 6.99 -3 8 C-1.125 2.25 -1.125 2.25 0 0 Z " fill="#E58B45" transform="translate(176,110)"/>
<path d="M0 0 C0.99 0 1.98 0 3 0 C2.67 1.65 2.34 3.3 2 5 C1.01 4.67 0.02 4.34 -1 4 C-0.67 2.68 -0.34 1.36 0 0 Z " fill="#FC821D" transform="translate(121,85)"/>
<path d="M0 0 C2.64 0.33 5.28 0.66 8 1 C8 1.66 8 2.32 8 3 C5.69 3 3.38 3 1 3 C0.67 2.01 0.34 1.02 0 0 Z " fill="#FDFBEF" transform="translate(8,85)"/>
<path d="M0 0 C0.66 0.33 1.32 0.66 2 1 C2 1.66 2 2.32 2 3 C1.34 3 0.68 3 0 3 C0 3.99 0 4.98 0 6 C-0.99 6 -1.98 6 -3 6 C-3 4.68 -3 3.36 -3 2 C-2.01 2 -1.02 2 0 2 C0 1.34 0 0.68 0 0 Z " fill="#FD821E" transform="translate(128,77)"/>
<path d="M0 0 C2.97 0.495 2.97 0.495 6 1 C5.67 1.99 5.34 2.98 5 4 C3.35 3.67 1.7 3.34 0 3 C0 2.01 0 1.02 0 0 Z " fill="#FCEED4" transform="translate(165,71)"/>
<path d="M0 0 C5.625 -0.25 5.625 -0.25 9 2 C8.67 2.99 8.34 3.98 8 5 C5.36 3.68 2.72 2.36 0 1 C0 0.67 0 0.34 0 0 Z " fill="#E49152" transform="translate(31,56)"/>
</svg>
